<?xml version="1.0" encoding="UTF-8" standalone="no"?>
<svg width="40px" height="40px" viewBox="0 0 40 40" version="1.1" xmlns="http://www.w3.org/2000/svg" xmlns:xlink="http://www.w3.org/1999/xlink">
    <!-- Generator: Sketch 3.8.2 (29753) - http://www.bohemiancoding.com/sketch -->
    <title>dash_acc_invest</title>
    <desc>Created with Sketch.</desc>
    <defs></defs>
    <g id="dashboard" stroke="none" stroke-width="1" fill="none" fill-rule="evenodd">
        <g id="dash_acc_invest">
            <g id="Group" transform="translate(2.000000, 4.000000)">
                <path d="M14.5534336,24.7401968 C15.8234978,24.2943429 17.0294861,24 18,24 C19.1725747,24 20.6888822,24.4296661 22.2466333,25.0370904 C22.5868559,24.4188943 23.2445089,24 24,24 C25.1045695,24 26,24.8954305 26,26 C26,26.242745 25.9567539,26.4753894 25.877546,26.690649 C28.1983563,27.8739727 30,29 30,29 L30,31 L6,31 L6,29 C6,29 8.28042941,27.5747316 11.014992,26.2461084 C11.0050955,26.1654588 11,26.0833245 11,26 C11,24.8954305 11.8954305,24 13,24 C13.6270706,24 14.1867377,24.2885882 14.5534336,24.7401968 Z" id="Rectangle-42" fill="#FFC708"></path>
                <path d="M0,-1.13679899e-13 C10,0.500000022 21,5.50000062 15,12.5000002 C9,19.4999998 1,6.5 0,-1.13679899e-13 Z" id="Path-17" stroke="#FFC708" stroke-width="2" stroke-linecap="round" stroke-linejoin="round"></path>
                <polyline id="Path-18" stroke="#FFC708" stroke-width="2" points="13 4 12 10 6 11"></polyline>
                <polyline id="Path-19" stroke="#FFC708" stroke-width="2" points="7.5 1 9 6.5 2 5.5"></polyline>
                <path d="M19,27 C18,13 8.5,5 0,0" id="Path-20" stroke="#FFC708" stroke-width="2"></path>
                <path d="M20,15 C21,17.6484732 26.0000002,21.9999998 36.0000007,7.99999999 C19.5,4.50000005 19,12.3515268 20,15 Z" id="Path-25" stroke="#FFC708" stroke-width="2" stroke-linecap="round" stroke-linejoin="round"></path>
                <path d="M17,18 C19,13 36,8 36,8" id="Path-26" stroke="#FFC708" stroke-width="2"></path>
                <polyline id="Path-27" stroke="#FFC708" stroke-width="2" points="28 16 23 13 26 7"></polyline>
                <polyline id="Path-28" stroke="#FFC708" stroke-width="2" points="32 13 28 11 29.5 7"></polyline>
            </g>
        </g>
    </g>
</svg>