<?xml version="1.0" encoding="UTF-8" standalone="no"?>
<svg width="40px" height="40px" viewBox="0 0 40 40" version="1.1" xmlns="http://www.w3.org/2000/svg" xmlns:xlink="http://www.w3.org/1999/xlink">
    <!-- Generator: Sketch 3.8.2 (29753) - http://www.bohemiancoding.com/sketch -->
    <title>dash_acc_savings</title>
    <desc>Created with Sketch.</desc>
    <defs>
        <path d="M24.5,27 C29.7467051,27 34,22.7467051 34,17.5 C34,12.2532949 24.5,0 24.5,0 C24.5,0 15,12.2532949 15,17.5 C15,22.7467051 19.2532949,27 24.5,27 Z" id="path-1"></path>
        <mask id="mask-2" maskContentUnits="userSpaceOnUse" maskUnits="objectBoundingBox" x="0" y="0" width="19" height="27" fill="white">
            <use xlink:href="#path-1"></use>
        </mask>
        <path d="M17.5,29 C22.7467051,29 27,24.7467051 27,19.5 C27,14.2532949 17.5,2 17.5,2 C17.5,2 8,14.2532949 8,19.5 C8,24.7467051 12.2532949,29 17.5,29 Z" id="path-3"></path>
        <mask id="mask-4" maskContentUnits="userSpaceOnUse" maskUnits="objectBoundingBox" x="0" y="0" width="19" height="27" fill="white">
            <use xlink:href="#path-3"></use>
        </mask>
        <path d="M9.5,31 C14.7467051,31 19,26.7467051 19,21.5 C19,16.2532949 9.5,4 9.5,4 C9.5,4 0,16.2532949 0,21.5 C0,26.7467051 4.25329488,31 9.5,31 Z" id="path-5"></path>
        <mask id="mask-6" maskContentUnits="userSpaceOnUse" maskUnits="objectBoundingBox" x="0" y="0" width="19" height="27" fill="white">
            <use xlink:href="#path-5"></use>
        </mask>
    </defs>
    <g id="dashboard" stroke="none" stroke-width="1" fill="none" fill-rule="evenodd">
        <g id="dash_acc_savings" stroke="#FFC704" stroke-width="4" fill="#FFFFFF">
            <g id="Oval-35-+-Oval-35" transform="translate(3.000000, 4.000000)">
                <use id="Oval-35" mask="url(#mask-2)" xlink:href="#path-1"></use>
                <use id="Oval-35" mask="url(#mask-4)" xlink:href="#path-3"></use>
                <use id="Oval-35" mask="url(#mask-6)" xlink:href="#path-5"></use>
            </g>
        </g>
    </g>
</svg>