<?xml version="1.0" encoding="UTF-8" standalone="no"?>
<svg width="32px" height="32px" viewBox="0 0 32 32" version="1.1" xmlns="http://www.w3.org/2000/svg" xmlns:xlink="http://www.w3.org/1999/xlink">
    <!-- Generator: Sketch 3.8.2 (29753) - http://www.bohemiancoding.com/sketch -->
    <title>dash_menu_funding_active</title>
    <desc>Created with Sketch.</desc>
    <defs>
        <circle id="path-1" cx="16" cy="16" r="16"></circle>
        <mask id="mask-2" maskContentUnits="userSpaceOnUse" maskUnits="objectBoundingBox" x="0" y="0" width="32" height="32" fill="white">
            <use xlink:href="#path-1"></use>
        </mask>
    </defs>
    <g id="dashboard" stroke="none" stroke-width="1" fill="none" fill-rule="evenodd">
        <g id="dash_menu_funding_active">
            <g id="Oval-23-+-Oval-29-+-Oval-29-+-Oval-29">
                <use id="Oval-23" stroke="#392A6B" mask="url(#mask-2)" stroke-width="2" fill="#FFFFFF" xlink:href="#path-1"></use>
                <g id="Oval-29-+-Oval-29-+-Oval-29" transform="translate(9.000000, 8.000000)" fill="#392A6B">
                    <path d="M13.6016867,6.16666667 C13.8596402,6.58370523 14,7.0324861 14,7.5 C14,9.709139 10.8659932,11.5 7,11.5 C3.13400675,11.5 0,9.709139 0,7.5 C0,7.0324861 0.140359849,6.58370523 0.398313318,6.16666667 C1.35926494,7.52605777 3.95215607,8.5 7,8.5 C10.0478439,8.5 12.6407351,7.52605777 13.6016867,6.16666667 Z" id="Oval-29"></path>
                    <path d="M13.6016867,10.5999756 C13.8596402,11.0170142 14,11.465795 14,11.9333089 C14,14.1424479 10.8659932,15.9333089 7,15.9333089 C3.13400675,15.9333089 0,14.1424479 0,11.9333089 C0,11.465795 0.140359849,11.0170142 0.398313318,10.5999756 C1.35926494,11.9593667 3.95215607,12.9333089 7,12.9333089 C10.0478439,12.9333089 12.6407351,11.9593667 13.6016867,10.5999756 Z" id="Oval-29"></path>
                    <ellipse id="Oval-29" cx="7" cy="3.5" rx="7" ry="3.5"></ellipse>
                </g>
            </g>
        </g>
    </g>
</svg>