<?xml version="1.0" encoding="UTF-8"?>
<svg width="30px" height="30px" viewBox="0 0 30 30" version="1.1" xmlns="http://www.w3.org/2000/svg" xmlns:xlink="http://www.w3.org/1999/xlink">
    <!-- Generator: Sketch 39.1 (31720) - http://www.bohemiancoding.com/sketch -->
    <title>epicure</title>
    <desc>Created with Sketch.</desc>
    <defs>
        <path d="M14.9535,29.9071428 C23.2120714,29.9071428 29.9070715,23.2121428 29.9070715,14.9535714 C29.9070715,6.695 23.2120714,0 14.9535,0 C6.69492855,0 -7.14285715e-05,6.695 -7.14285715e-05,14.9535714 C-7.14285715e-05,23.2121428 6.69492855,29.9071428 14.9535,29.9071428" id="path-1"></path>
        <path d="M1.15021399,0.356700893 C0.409256049,2.12983746 0,4.07607966 0,6.11785715 C0,8.1030721 0.386861756,9.99793815 1.0893088,11.7311788 L24.8190835,11.7311785 L24.8190835,0.356700893 L1.15021399,0.356700893 L1.15021399,0.356700893 L1.15021399,0.356700893 Z" id="path-3"></path>
        <path d="M1.15021399,0.356700893 C0.409256049,2.12983746 0,4.07607966 0,6.11785715 C0,8.1030721 0.386861756,9.99793815 1.0893088,11.7311788 L24.8190835,11.7311785 L24.8190835,0.356700893 L1.15021399,0.356700893 L1.15021399,0.356700893 L1.15021399,0.356700893 Z" id="path-5"></path>
    </defs>
    <g id="Page-1" stroke="none" stroke-width="1" fill="none" fill-rule="evenodd">
        <g id="epicure">
            <g id="moneytype">
                <g id="epicure">
                    <g id="Fill-1" fill="#1B4D7F">
                        <path d="M14.9535,29.9071428 C23.2120714,29.9071428 29.9070715,23.2121428 29.9070715,14.9535714 C29.9070715,6.695 23.2120714,0 14.9535,0 C6.69492855,0 -7.14285715e-05,6.695 -7.14285715e-05,14.9535714 C-7.14285715e-05,23.2121428 6.69492855,29.9071428 14.9535,29.9071428" id="path-1"></path>
                    </g>
                    <g id="Group-10-Clipped">
                        <mask id="mask-2" fill="white">
                            <use xlink:href="#path-1"></use>
                        </mask>
                        <g id="path-1"></g>
                        <g id="Group-10" mask="url(#mask-2)">
                            <g transform="translate(0.000000, 9.000000)" id="Group">
                                <g transform="translate(0.000000, 0.192678)">
                                    <g id="Group-6">
                                        <g id="Fill-4-Clipped">
                                            <mask id="mask-4" fill="white">
                                                <use xlink:href="#path-3"></use>
                                            </mask>
                                            <g id="path-3"></g>
                                            <path d="M13.7852143,7.49367855 L15.2302143,11.6926072 C15.2380714,11.7161786 15.2602143,11.7311785 15.2837857,11.7311785 C15.2880715,11.7311785 15.2927143,11.7304643 15.297,11.7293928 L17.0862857,11.3011785 C17.1112857,11.2951071 17.1291429,11.2729643 17.1298571,11.24725 L17.2455714,6.84475 C17.7530715,6.63332145 22.7559286,4.55082143 23.2048572,4.32582143 C23.5998571,4.12796429 25.052,3.15153572 24.787,2.57653571 C24.5387857,2.03832143 21.8062857,1.67617857 20.4873572,1.87617857 C19.2666429,2.06117857 16.1573572,3.09903571 15.8702143,3.19546428 L9.51164285,0.361535714 C9.4962857,0.35475 9.47842855,0.355107143 9.46307145,0.362607143 L7.6737857,1.25832143 C7.65664285,1.26725 7.64485715,1.28403571 7.6427143,1.30332143 C7.64092855,1.32260715 7.6487857,1.34153572 7.6637857,1.35367857 L11.9830715,4.83653572 L9.1945,6.18082145 L6.0102143,4.00546429 C6.08164285,3.97546429 6.16557145,3.92367857 6.2027143,3.83975 C6.2387857,3.75832143 6.2252143,3.66653572 6.16307145,3.56689285 C6.11842855,3.49582143 6.01485715,3.32975 4.59842857,3.97367857 C3.9195,4.28225 3.25521429,4.63367857 3.24878572,4.63689285 C3.22557143,4.64939286 3.21378572,4.67546429 3.22021428,4.70117857 C3.22664285,4.72653571 3.24914286,4.74403571 3.27521429,4.74403571 L4.142,4.74403571 L5.4945,6.5090357 L3.94807143,6.18939285 C3.93628572,6.18689285 3.92414285,6.18832145 3.91342857,6.1929643 L2.78521429,6.69939285 C2.76557143,6.70832145 2.75271428,6.72725 2.75164286,6.7490357 C2.75092857,6.7704643 2.76235715,6.79082145 2.78128572,6.80117855 L4.99807143,8.01832145 L1.79735715,8.01832145 C1.76592857,8.01832145 1.74057143,8.0440357 1.74057143,8.0754643 C1.74057143,8.10689285 1.76592857,8.13225 1.79735715,8.13225 L5.2202143,8.13225 C5.24592855,8.13225 5.2687857,8.11475 5.2752143,8.08939285 C5.28164285,8.06439285 5.2702143,8.0379643 5.24735715,8.0254643 L2.93628572,6.7565357 L3.94307143,6.30439285 L5.62092855,6.65117855 C5.64414285,6.65617855 5.66807145,6.64582145 5.68057145,6.62582145 C5.69307145,6.6054643 5.692,6.57975 5.67735715,6.56082145 L4.21485714,4.65260714 C4.20414285,4.63867857 4.18771429,4.63046429 4.16985714,4.63046429 L3.50807143,4.63046429 C3.757,4.50260714 4.19842857,4.28046428 4.64592857,4.07689285 C5.93414285,3.49153571 6.05664285,3.61153572 6.06664285,3.62725 C6.1077143,3.69296428 6.11842855,3.74903572 6.0987857,3.79332143 C6.062,3.87796429 5.922,3.92082143 5.8712857,3.93046428 C5.84842855,3.93439286 5.83057145,3.95189286 5.82557145,3.97439286 C5.82092855,3.99725 5.8302143,4.02046429 5.84914285,4.03332143 L9.1552143,6.29225 C9.17092855,6.30260715 9.19092855,6.30475 9.20842855,6.2979643 L12.1155714,4.90582143 C12.1345,4.89832143 12.1477143,4.88153572 12.1505714,4.86153571 C12.1537857,4.84153571 12.1459286,4.82153571 12.1302143,4.80903572 L7.8037857,1.32046428 L9.48985715,0.476535714 L15.8441429,3.30832143 C15.8573572,3.31439285 15.872,3.31510715 15.8855714,3.31046429 C15.9187857,3.29903572 19.2405715,2.18046428 20.5045,1.98867857 C21.8198572,1.78903572 24.4784286,2.17867857 24.6837857,2.62439285 C24.8887857,3.06903572 23.6273572,3.98725 23.1541428,4.22403572 C22.6945,4.45403571 17.2230714,6.73082145 17.1680714,6.75367855 C17.1473572,6.76225 17.1334286,6.78225 17.1330715,6.80475 L17.0173572,11.2004643 L15.3209285,11.6068928 L13.8752143,7.4054643 C13.8652143,7.37689285 13.8348571,7.36082145 13.8055714,7.36939285 C13.7716428,7.3790357 10.0277143,8.7254643 9.382,8.7254643 L-1.66442857,8.7254643 L-1.66442857,8.83939285 L9.382,8.83939285 C10.0062857,8.83939285 13.3391428,7.62117855 13.7852143,7.49367855" id="Fill-4" fill="#FFFFFF" mask="url(#mask-4)"></path>
                                        </g>
                                    </g>
                                    <g id="Group-9">
                                        <g id="Stroke-7-Clipped">
                                            <mask id="mask-6" fill="white">
                                                <use xlink:href="#path-5"></use>
                                            </mask>
                                            <g id="path-5"></g>
                                            <path d="M13.7852143,7.49367855 L15.2302143,11.6926072 C15.2380714,11.7161786 15.2602143,11.7311785 15.2837857,11.7311785 C15.2880715,11.7311785 15.2927143,11.7304643 15.297,11.7293928 L17.0862857,11.3011785 C17.1112857,11.2951071 17.1291429,11.2729643 17.1298571,11.24725 L17.2455714,6.84475 C17.7530715,6.63332145 22.7559286,4.55082143 23.2048572,4.32582143 C23.5998571,4.12796429 25.052,3.15153572 24.787,2.57653571 C24.5387857,2.03832143 21.8062857,1.67617857 20.4873572,1.87617857 C19.2666429,2.06117857 16.1573572,3.09903571 15.8702143,3.19546428 L9.51164285,0.361535714 C9.4962857,0.35475 9.47842855,0.355107143 9.46307145,0.362607143 L7.6737857,1.25832143 C7.65664285,1.26725 7.64485715,1.28403571 7.6427143,1.30332143 C7.64092855,1.32260715 7.6487857,1.34153572 7.6637857,1.35367857 L11.9830715,4.83653572 L9.1945,6.18082145 L6.0102143,4.00546429 C6.08164285,3.97546429 6.16557145,3.92367857 6.2027143,3.83975 C6.2387857,3.75832143 6.2252143,3.66653572 6.16307145,3.56689285 C6.11842855,3.49582143 6.01485715,3.32975 4.59842857,3.97367857 C3.9195,4.28225 3.25521429,4.63367857 3.24878572,4.63689285 C3.22557143,4.64939286 3.21378572,4.67546429 3.22021428,4.70117857 C3.22664285,4.72653571 3.24914286,4.74403571 3.27521429,4.74403571 L4.142,4.74403571 L5.4945,6.5090357 L3.94807143,6.18939285 C3.93628572,6.18689285 3.92414285,6.18832145 3.91342857,6.1929643 L2.78521429,6.69939285 C2.76557143,6.70832145 2.75271428,6.72725 2.75164286,6.7490357 C2.75092857,6.7704643 2.76235715,6.79082145 2.78128572,6.80117855 L4.99807143,8.01832145 L1.79735715,8.01832145 C1.76592857,8.01832145 1.74057143,8.0440357 1.74057143,8.0754643 C1.74057143,8.10689285 1.76592857,8.13225 1.79735715,8.13225 L5.2202143,8.13225 C5.24592855,8.13225 5.2687857,8.11475 5.2752143,8.08939285 C5.28164285,8.06439285 5.2702143,8.0379643 5.24735715,8.0254643 L2.93628572,6.7565357 L3.94307143,6.30439285 L5.62092855,6.65117855 C5.64414285,6.65617855 5.66807145,6.64582145 5.68057145,6.62582145 C5.69307145,6.6054643 5.692,6.57975 5.67735715,6.56082145 L4.21485714,4.65260714 C4.20414285,4.63867857 4.18771429,4.63046429 4.16985714,4.63046429 L3.50807143,4.63046429 C3.757,4.50260714 4.19842857,4.28046428 4.64592857,4.07689285 C5.93414285,3.49153571 6.05664285,3.61153572 6.06664285,3.62725 C6.1077143,3.69296428 6.11842855,3.74903572 6.0987857,3.79332143 C6.062,3.87796429 5.922,3.92082143 5.8712857,3.93046428 C5.84842855,3.93439286 5.83057145,3.95189286 5.82557145,3.97439286 C5.82092855,3.99725 5.8302143,4.02046429 5.84914285,4.03332143 L9.1552143,6.29225 C9.17092855,6.30260715 9.19092855,6.30475 9.20842855,6.2979643 L12.1155714,4.90582143 C12.1345,4.89832143 12.1477143,4.88153572 12.1505714,4.86153571 C12.1537857,4.84153571 12.1459286,4.82153571 12.1302143,4.80903572 L7.8037857,1.32046428 L9.48985715,0.476535714 L15.8441429,3.30832143 C15.8573572,3.31439285 15.872,3.31510715 15.8855714,3.31046429 C15.9187857,3.29903572 19.2405715,2.18046428 20.5045,1.98867857 C21.8198572,1.78903572 24.4784286,2.17867857 24.6837857,2.62439285 C24.8887857,3.06903572 23.6273572,3.98725 23.1541428,4.22403572 C22.6945,4.45403571 17.2230714,6.73082145 17.1680714,6.75367855 C17.1473572,6.76225 17.1334286,6.78225 17.1330715,6.80475 L17.0173572,11.2004643 L15.3209285,11.6068928 L13.8752143,7.4054643 C13.8652143,7.37689285 13.8348571,7.36082145 13.8055714,7.36939285 C13.7716428,7.3790357 10.0277143,8.7254643 9.382,8.7254643 L-1.66442857,8.7254643 L-1.66442857,8.83939285 L9.382,8.83939285 C10.0062857,8.83939285 13.3391428,7.62117855 13.7852143,7.49367855 L13.7852143,7.49367855 L13.7852143,7.49367855 Z" id="Stroke-7" stroke="#FEFEFE" mask="url(#mask-6)"></path>
                                        </g>
                                    </g>
                                </g>
                            </g>
                        </g>
                    </g>
                </g>
            </g>
        </g>
    </g>
</svg>