<?xml version="1.0" encoding="UTF-8" standalone="no"?>
<svg width="60px" height="60px" viewBox="0 0 60 60" version="1.1" xmlns="http://www.w3.org/2000/svg" xmlns:xlink="http://www.w3.org/1999/xlink">
    <!-- Generator: Sketch 3.8.3 (29802) - http://www.bohemiancoding.com/sketch -->
    <title>epicure</title>
    <desc>Created with Sketch.</desc>
    <defs>
        <path d="M29.907,59.8142857 C46.4241429,59.8142857 59.8141429,46.4242857 59.8141429,29.9071429 C59.8141429,13.39 46.4241429,0 29.907,0 C13.3898571,0 -0.000142857143,13.39 -0.000142857143,29.9071429 C-0.000142857143,46.4242857 13.3898571,59.8142857 29.907,59.8142857" id="path-1"></path>
        <path d="M2.30042798,0.713401786 C0.818512097,4.25967492 0,8.15215931 0,12.2357143 C0,16.2061442 0.773723511,19.9958763 2.17861761,23.4623576 L49.6381671,23.4623571 L49.6381671,0.713401786 L2.30042798,0.713401786 L2.30042798,0.713401786 Z" id="path-3"></path>
        <path d="M2.30042798,0.713401786 C0.818512097,4.25967492 0,8.15215931 0,12.2357143 C0,16.2061442 0.773723511,19.9958763 2.17861761,23.4623576 L49.6381671,23.4623571 L49.6381671,0.713401786 L2.30042798,0.713401786 L2.30042798,0.713401786 Z" id="path-5"></path>
    </defs>
    <g id="moneytype" stroke="none" stroke-width="1" fill="none" fill-rule="evenodd">
        <g id="epicure">
            <mask id="mask-2" fill="white">
                <use xlink:href="#path-1"></use>
            </mask>
            <use id="Fill-1" fill="#1B4D7F" xlink:href="#path-1"></use>
            <g id="Group-10" mask="url(#mask-2)">
                <g transform="translate(0.000000, 18.385357)">
                    <g id="Group-6">
                        <mask id="mask-4" fill="white">
                            <use xlink:href="#path-3"></use>
                        </mask>
                        <g id="Clip-5"></g>
                        <path d="M27.5704286,14.9873571 L30.4604286,23.3852143 C30.4761429,23.4323571 30.5204286,23.4623571 30.5675714,23.4623571 C30.5761429,23.4623571 30.5854286,23.4609286 30.594,23.4587857 L34.1725714,22.6023571 C34.2225714,22.5902143 34.2582857,22.5459286 34.2597143,22.4945 L34.4911429,13.6895 C35.5061429,13.2666429 45.5118571,9.10164286 46.4097143,8.65164286 C47.1997143,8.25592857 50.104,6.30307143 49.574,5.15307143 C49.0775714,4.07664286 43.6125714,3.35235714 40.9747143,3.75235714 C38.5332857,4.12235714 32.3147143,6.19807143 31.7404286,6.39092857 L19.0232857,0.723071429 C18.9925714,0.7095 18.9568571,0.710214286 18.9261429,0.725214286 L15.3475714,2.51664286 C15.3132857,2.5345 15.2897143,2.56807143 15.2854286,2.60664286 C15.2818571,2.64521429 15.2975714,2.68307143 15.3275714,2.70735714 L23.9661429,9.67307143 L18.389,12.3616429 L12.0204286,8.01092857 C12.1632857,7.95092857 12.3311429,7.84735714 12.4054286,7.6795 C12.4775714,7.51664286 12.4504286,7.33307143 12.3261429,7.13378571 C12.2368571,6.99164286 12.0297143,6.6595 9.19685714,7.94735714 C7.839,8.5645 6.51042857,9.26735714 6.49757143,9.27378571 C6.45114286,9.29878571 6.42757143,9.35092857 6.44042857,9.40235714 C6.45328571,9.45307143 6.49828571,9.48807143 6.55042857,9.48807143 L8.284,9.48807143 L10.989,13.0180714 L7.89614286,12.3787857 C7.87257143,12.3737857 7.84828571,12.3766429 7.82685714,12.3859286 L5.57042857,13.3987857 C5.53114286,13.4166429 5.50542857,13.4545 5.50328571,13.4980714 C5.50185714,13.5409286 5.52471429,13.5816429 5.56257143,13.6023571 L9.99614286,16.0366429 L3.59471429,16.0366429 C3.53185714,16.0366429 3.48114286,16.0880714 3.48114286,16.1509286 C3.48114286,16.2137857 3.53185714,16.2645 3.59471429,16.2645 L10.4404286,16.2645 C10.4918571,16.2645 10.5375714,16.2295 10.5504286,16.1787857 C10.5632857,16.1287857 10.5404286,16.0759286 10.4947143,16.0509286 L5.87257143,13.5130714 L7.88614286,12.6087857 L11.2418571,13.3023571 C11.2882857,13.3123571 11.3361429,13.2916429 11.3611429,13.2516429 C11.3861429,13.2109286 11.384,13.1595 11.3547143,13.1216429 L8.42971429,9.30521429 C8.40828571,9.27735714 8.37542857,9.26092857 8.33971429,9.26092857 L7.01614286,9.26092857 C7.514,9.00521429 8.39685714,8.56092857 9.29185714,8.15378571 C11.8682857,6.98307143 12.1132857,7.22307143 12.1332857,7.2545 C12.2154286,7.38592857 12.2368571,7.49807143 12.1975714,7.58664286 C12.124,7.75592857 11.844,7.84164286 11.7425714,7.86092857 C11.6968571,7.86878571 11.6611429,7.90378571 11.6511429,7.94878571 C11.6418571,7.9945 11.6604286,8.04092857 11.6982857,8.06664286 L18.3104286,12.5845 C18.3418571,12.6052143 18.3818571,12.6095 18.4168571,12.5959286 L24.2311429,9.81164286 C24.269,9.79664286 24.2954286,9.76307143 24.3011429,9.72307143 C24.3075714,9.68307143 24.2918571,9.64307143 24.2604286,9.61807143 L15.6075714,2.64092857 L18.9797143,0.953071429 L31.6882857,6.61664286 C31.7147143,6.62878571 31.744,6.63021429 31.7711429,6.62092857 C31.8375714,6.59807143 38.4811429,4.36092857 41.009,3.97735714 C43.6397143,3.57807143 48.9568571,4.35735714 49.3675714,5.24878571 C49.7775714,6.13807143 47.2547143,7.9745 46.3082857,8.44807143 C45.389,8.90807143 34.4461429,13.4616429 34.3361429,13.5073571 C34.2947143,13.5245 34.2668571,13.5645 34.2661429,13.6095 L34.0347143,22.4009286 L30.6418571,23.2137857 L27.7504286,14.8109286 C27.7304286,14.7537857 27.6697143,14.7216429 27.6111429,14.7387857 C27.5432857,14.7580714 20.0554286,17.4509286 18.764,17.4509286 L-3.32885714,17.4509286 L-3.32885714,17.6787857 L18.764,17.6787857 C20.0125714,17.6787857 26.6782857,15.2423571 27.5704286,14.9873571" id="Fill-4" fill="#FFFFFF" mask="url(#mask-4)"></path>
                    </g>
                    <g id="Group-9">
                        <mask id="mask-6" fill="white">
                            <use xlink:href="#path-5"></use>
                        </mask>
                        <g id="Clip-8"></g>
                        <path d="M27.5704286,14.9873571 L30.4604286,23.3852143 C30.4761429,23.4323571 30.5204286,23.4623571 30.5675714,23.4623571 C30.5761429,23.4623571 30.5854286,23.4609286 30.594,23.4587857 L34.1725714,22.6023571 C34.2225714,22.5902143 34.2582857,22.5459286 34.2597143,22.4945 L34.4911429,13.6895 C35.5061429,13.2666429 45.5118571,9.10164286 46.4097143,8.65164286 C47.1997143,8.25592857 50.104,6.30307143 49.574,5.15307143 C49.0775714,4.07664286 43.6125714,3.35235714 40.9747143,3.75235714 C38.5332857,4.12235714 32.3147143,6.19807143 31.7404286,6.39092857 L19.0232857,0.723071429 C18.9925714,0.7095 18.9568571,0.710214286 18.9261429,0.725214286 L15.3475714,2.51664286 C15.3132857,2.5345 15.2897143,2.56807143 15.2854286,2.60664286 C15.2818571,2.64521429 15.2975714,2.68307143 15.3275714,2.70735714 L23.9661429,9.67307143 L18.389,12.3616429 L12.0204286,8.01092857 C12.1632857,7.95092857 12.3311429,7.84735714 12.4054286,7.6795 C12.4775714,7.51664286 12.4504286,7.33307143 12.3261429,7.13378571 C12.2368571,6.99164286 12.0297143,6.6595 9.19685714,7.94735714 C7.839,8.5645 6.51042857,9.26735714 6.49757143,9.27378571 C6.45114286,9.29878571 6.42757143,9.35092857 6.44042857,9.40235714 C6.45328571,9.45307143 6.49828571,9.48807143 6.55042857,9.48807143 L8.284,9.48807143 L10.989,13.0180714 L7.89614286,12.3787857 C7.87257143,12.3737857 7.84828571,12.3766429 7.82685714,12.3859286 L5.57042857,13.3987857 C5.53114286,13.4166429 5.50542857,13.4545 5.50328571,13.4980714 C5.50185714,13.5409286 5.52471429,13.5816429 5.56257143,13.6023571 L9.99614286,16.0366429 L3.59471429,16.0366429 C3.53185714,16.0366429 3.48114286,16.0880714 3.48114286,16.1509286 C3.48114286,16.2137857 3.53185714,16.2645 3.59471429,16.2645 L10.4404286,16.2645 C10.4918571,16.2645 10.5375714,16.2295 10.5504286,16.1787857 C10.5632857,16.1287857 10.5404286,16.0759286 10.4947143,16.0509286 L5.87257143,13.5130714 L7.88614286,12.6087857 L11.2418571,13.3023571 C11.2882857,13.3123571 11.3361429,13.2916429 11.3611429,13.2516429 C11.3861429,13.2109286 11.384,13.1595 11.3547143,13.1216429 L8.42971429,9.30521429 C8.40828571,9.27735714 8.37542857,9.26092857 8.33971429,9.26092857 L7.01614286,9.26092857 C7.514,9.00521429 8.39685714,8.56092857 9.29185714,8.15378571 C11.8682857,6.98307143 12.1132857,7.22307143 12.1332857,7.2545 C12.2154286,7.38592857 12.2368571,7.49807143 12.1975714,7.58664286 C12.124,7.75592857 11.844,7.84164286 11.7425714,7.86092857 C11.6968571,7.86878571 11.6611429,7.90378571 11.6511429,7.94878571 C11.6418571,7.9945 11.6604286,8.04092857 11.6982857,8.06664286 L18.3104286,12.5845 C18.3418571,12.6052143 18.3818571,12.6095 18.4168571,12.5959286 L24.2311429,9.81164286 C24.269,9.79664286 24.2954286,9.76307143 24.3011429,9.72307143 C24.3075714,9.68307143 24.2918571,9.64307143 24.2604286,9.61807143 L15.6075714,2.64092857 L18.9797143,0.953071429 L31.6882857,6.61664286 C31.7147143,6.62878571 31.744,6.63021429 31.7711429,6.62092857 C31.8375714,6.59807143 38.4811429,4.36092857 41.009,3.97735714 C43.6397143,3.57807143 48.9568571,4.35735714 49.3675714,5.24878571 C49.7775714,6.13807143 47.2547143,7.9745 46.3082857,8.44807143 C45.389,8.90807143 34.4461429,13.4616429 34.3361429,13.5073571 C34.2947143,13.5245 34.2668571,13.5645 34.2661429,13.6095 L34.0347143,22.4009286 L30.6418571,23.2137857 L27.7504286,14.8109286 C27.7304286,14.7537857 27.6697143,14.7216429 27.6111429,14.7387857 C27.5432857,14.7580714 20.0554286,17.4509286 18.764,17.4509286 L-3.32885714,17.4509286 L-3.32885714,17.6787857 L18.764,17.6787857 C20.0125714,17.6787857 26.6782857,15.2423571 27.5704286,14.9873571 L27.5704286,14.9873571 Z" id="Stroke-7" stroke="#FEFEFE" mask="url(#mask-6)"></path>
                    </g>
                </g>
            </g>
        </g>
    </g>
</svg>