<?xml version="1.0" encoding="UTF-8" standalone="no"?>
<svg width="60px" height="60px" viewBox="0 0 60 60" version="1.1" xmlns="http://www.w3.org/2000/svg" xmlns:xlink="http://www.w3.org/1999/xlink">
    <!-- Generator: Sketch 3.8.3 (29802) - http://www.bohemiancoding.com/sketch -->
    <title>independent</title>
    <desc>Created with Sketch.</desc>
    <defs>
        <path d="M29.5551529,59.8161176 C45.8779765,59.8161176 59.1104471,46.5836471 59.1104471,30.2608235 C59.1104471,13.938 45.8779765,0.706235294 29.5551529,0.706235294 C13.2323294,0.706235294 -0.000141176471,13.938 -0.000141176471,30.2608235 C-0.000141176471,46.5836471 13.2323294,59.8161176 29.5551529,59.8161176" id="path-1"></path>
    </defs>
    <g id="moneytype" stroke="none" stroke-width="1" fill="none" fill-rule="evenodd">
        <g id="independent">
            <mask id="mask-2" fill="white">
                <use xlink:href="#path-1"></use>
            </mask>
            <use id="Fill-1" fill="#FF6400" xlink:href="#path-1"></use>
            <path d="M33.8471294,46.2565412 L33.8471294,45.8125412 C33.8471294,45.5668941 33.6480706,45.3671294 33.4017176,45.3671294 L32.4967765,45.3671294 L32.4967765,42.1984235 L32.5080706,42.1984235 C32.6866588,42.1984235 32.8574824,42.1264235 32.9831294,42.0000706 C33.4631294,41.5144235 44.7452471,30.0163059 44.7452471,21.3445412 C44.7452471,12.9685412 37.9306588,6.15465882 29.5546588,6.15465882 C21.1786588,6.15465882 14.3654824,12.9685412 14.3654824,21.3445412 C14.3654824,29.6570118 25.6130118,41.4925412 26.0916,41.9923059 C26.2108941,42.1165412 26.3739529,42.1878353 26.5454824,42.1948941 L26.5454824,45.3671294 L25.7083059,45.3671294 C25.4619529,45.3671294 25.2628941,45.5668941 25.2628941,45.8125412 L25.2628941,46.2565412 L25.2374824,46.2565412 C25.2254824,47.0196 24.7250118,47.7791294 24.7250118,48.1581882 C24.7250118,48.5471294 24.9438353,48.8810118 25.2628941,49.0546588 L25.2628941,49.9412471 C25.2628941,51.3459529 26.4057176,52.4887765 27.8104235,52.4887765 L31.3003059,52.4887765 C32.7043059,52.4887765 33.8471294,51.3459529 33.8471294,49.9412471 L33.8471294,49.0553647 C34.1661882,48.8810118 34.3843059,48.5471294 34.3843059,48.1581882 C34.3843059,47.7791294 33.8845412,47.1452471 33.8718353,46.2565412 L33.8471294,46.2565412 Z M43.4083059,21.3445412 C43.4083059,25.2268941 40.8360706,29.8708941 38.1381882,33.6784235 L37.0913647,33.6784235 C39.0523059,29.8617176 40.8438353,25.2981882 40.8438353,21.3445412 C40.8438353,16.2939529 38.9457176,11.8236 36.0480706,9.1116 C40.4224235,11.4431294 43.4083059,16.0504235 43.4083059,21.3445412 L43.4083059,21.3445412 Z M39.9530118,21.3445412 C39.9530118,25.2388941 38.0668941,29.8631294 36.0671294,33.6784235 L33.8908941,33.6784235 C34.9737176,29.8652471 35.9697176,25.2953647 35.9697176,21.3445412 C35.9697176,15.2570118 34.4873647,10.1294824 32.3005412,7.76971765 C36.7059529,9.40454118 39.9530118,14.8694824 39.9530118,21.3445412 L39.9530118,21.3445412 Z M30.0007765,7.50218824 C30.2005412,7.50854118 30.3988941,7.51912941 30.5972471,7.53395294 C33.1137176,8.81654118 35.0788941,14.6196 35.0788941,21.3445412 C35.0788941,25.2431294 34.0497176,29.8596 32.9520706,33.6784235 L30.0007765,33.6784235 L30.0007765,7.50218824 Z M28.5134824,7.53395294 C28.7111294,7.51912941 28.9101882,7.50854118 29.1099529,7.50218824 L29.1099529,33.6784235 L26.1932471,33.6784235 C25.0836,29.7960706 24.0318353,25.1238353 24.0318353,21.3445412 C24.0318353,14.6188941 25.9977176,8.81654118 28.5134824,7.53395294 L28.5134824,7.53395294 Z M26.8094824,7.76971765 C24.6233647,10.1294824 23.1410118,15.2570118 23.1410118,21.3445412 C23.1410118,25.1774824 24.1581882,29.8031294 25.2537176,33.6784235 L23.1064235,33.6784235 C21.0840706,29.7996 19.1577176,25.1181882 19.1577176,21.3445412 C19.1577176,14.8694824 22.4047765,9.40454118 26.8094824,7.76971765 L26.8094824,7.76971765 Z M15.7017176,21.3445412 C15.7017176,16.0497176 18.6883059,11.4424235 23.0633647,9.11089412 C20.1650118,11.8228941 18.2661882,16.2939529 18.2661882,21.3445412 C18.2661882,25.1831294 20.1000706,29.7996 22.0850118,33.6784235 L21.0544235,33.6784235 C18.3276,29.8073647 15.7017176,25.1054824 15.7017176,21.3445412 L15.7017176,21.3445412 Z M21.3692471,34.5692471 L37.7379529,34.5692471 C35.2906588,37.9087765 32.8560706,40.4845412 32.2779529,41.0845412 L26.7247765,41.0845412 C26.1530118,40.4732471 23.7784235,37.8854824 21.3692471,34.5692471 L21.3692471,34.5692471 Z M27.0770118,45.3678353 L31.9652471,45.3678353 L31.9652471,42.1984235 L27.0770118,42.1984235 L27.0770118,45.3678353 Z M31.3003059,51.5972471 L27.8104235,51.5972471 C26.8970118,51.5972471 26.1544235,50.8546588 26.1544235,49.9412471 L26.1544235,49.1012471 C26.5200706,48.9445412 26.7770118,48.5817176 26.7770118,48.1581882 C26.7770118,47.7791294 26.2779529,47.1459529 26.2638353,46.2579529 L28.9631294,46.2579529 C28.9497176,47.0210118 28.4506588,47.7798353 28.4506588,48.1581882 C28.4506588,48.7250118 28.9094824,49.1845412 29.4756,49.1845412 C30.0424235,49.1845412 30.5019529,48.7250118 30.5019529,48.1581882 C30.5019529,47.7798353 30.0021882,47.1459529 29.9887765,46.2579529 L32.8454824,46.2579529 C32.8327765,47.0210118 32.3330118,47.7791294 32.3330118,48.1581882 C32.3330118,48.5817176 32.5899529,48.9445412 32.9563059,49.1012471 L32.9563059,49.9412471 C32.9563059,50.8546588 32.2137176,51.5972471 31.3003059,51.5972471 L31.3003059,51.5972471 Z" id="Fill-4" fill="#FEFEFE" mask="url(#mask-2)"></path>
        </g>
    </g>
</svg>