<?xml version="1.0" encoding="UTF-8"?>
<svg width="30px" height="30px" viewBox="0 0 30 30" version="1.1" xmlns="http://www.w3.org/2000/svg" xmlns:xlink="http://www.w3.org/1999/xlink">
    <!-- Generator: Sketch 39.1 (31720) - http://www.bohemiancoding.com/sketch -->
    <title>independent</title>
    <desc>Created with Sketch.</desc>
    <defs>
        <path d="M14.7775764,29.9080588 C22.9389883,29.9080588 29.5552236,23.2918236 29.5552236,15.1304118 C29.5552236,6.969 22.9389883,0.353117647 14.7775764,0.353117647 C6.6161647,0.353117647 -7.05882355e-05,6.969 -7.05882355e-05,15.1304118 C-7.05882355e-05,23.2918236 6.6161647,29.9080588 14.7775764,29.9080588" id="path-1"></path>
    </defs>
    <g id="Page-1" stroke="none" stroke-width="1" fill="none" fill-rule="evenodd">
        <g id="independent">
            <g id="moneytype">
                <g id="independent">
                    <g id="Fill-1" fill="#FF6400">
                        <path d="M14.7775764,29.9080588 C22.9389883,29.9080588 29.5552236,23.2918236 29.5552236,15.1304118 C29.5552236,6.969 22.9389883,0.353117647 14.7775764,0.353117647 C6.6161647,0.353117647 -7.05882355e-05,6.969 -7.05882355e-05,15.1304118 C-7.05882355e-05,23.2918236 6.6161647,29.9080588 14.7775764,29.9080588" id="path-1"></path>
                    </g>
                    <g id="Fill-4-Clipped">
                        <mask id="mask-2" fill="white">
                            <use xlink:href="#path-1"></use>
                        </mask>
                        <g id="path-1"></g>
                        <path d="M16.9235647,23.1282706 L16.9235647,22.9062706 C16.9235647,22.783447 16.8240353,22.6835647 16.7008588,22.6835647 L16.2483883,22.6835647 L16.2483883,21.0992117 L16.2540353,21.0992117 C16.3433294,21.0992117 16.4287412,21.0632118 16.4915647,21.0000353 C16.7315647,20.7572117 22.3726236,15.0081529 22.3726236,10.6722706 C22.3726236,6.4842706 18.9653294,3.07732941 14.7773294,3.07732941 C10.5893294,3.07732941 7.1827412,6.4842706 7.1827412,10.6722706 C7.1827412,14.8285059 12.8065059,20.7462706 13.0458,20.9961529 C13.1054471,21.0582706 13.1869764,21.0939177 13.2727412,21.097447 L13.2727412,22.6835647 L12.8541529,22.6835647 C12.7309764,22.6835647 12.6314471,22.783447 12.6314471,22.9062706 L12.6314471,23.1282706 L12.6187412,23.1282706 C12.6127412,23.5098 12.3625059,23.8895647 12.3625059,24.0790941 C12.3625059,24.2735647 12.4719176,24.4405059 12.6314471,24.5273294 L12.6314471,24.9706235 C12.6314471,25.6729765 13.2028588,26.2443883 13.9052117,26.2443883 L15.6501529,26.2443883 C16.352153,26.2443883 16.9235647,25.6729765 16.9235647,24.9706235 L16.9235647,24.5276823 C17.0830941,24.4405059 17.192153,24.2735647 17.192153,24.0790941 C17.192153,23.8895647 16.9422706,23.5726235 16.9359177,23.1282706 L16.9235647,23.1282706 L16.9235647,23.1282706 Z M21.704153,10.6722706 C21.704153,12.6134471 20.4180353,14.9354471 19.0690941,16.8392118 L18.5456823,16.8392118 C19.526153,14.9308588 20.4219177,12.6490941 20.4219177,10.6722706 C20.4219177,8.14697645 19.4728588,5.9118 18.0240353,4.5558 C20.2112118,5.7215647 21.704153,8.02521175 21.704153,10.6722706 L21.704153,10.6722706 L21.704153,10.6722706 Z M19.9765059,10.6722706 C19.9765059,12.6194471 19.033447,14.9315647 18.0335647,16.8392118 L16.945447,16.8392118 C17.4868588,14.9326236 17.9848588,12.6476824 17.9848588,10.6722706 C17.9848588,7.6285059 17.2436824,5.0647412 16.1502706,3.88485882 C18.3529764,4.70227059 19.9765059,7.4347412 19.9765059,10.6722706 L19.9765059,10.6722706 L19.9765059,10.6722706 Z M15.0003883,3.75109412 C15.1002706,3.75427059 15.199447,3.7595647 15.2986235,3.76697647 C16.5568588,4.40827059 17.539447,7.3098 17.539447,10.6722706 C17.539447,12.6215647 17.0248588,14.9298 16.4760353,16.8392118 L15.0003883,16.8392118 L15.0003883,3.75109412 L15.0003883,3.75109412 Z M14.2567412,3.76697647 C14.3555647,3.7595647 14.4550941,3.75427059 14.5549765,3.75109412 L14.5549765,16.8392118 L13.0966236,16.8392118 C12.5418,14.8980353 12.0159177,12.5619177 12.0159177,10.6722706 C12.0159177,7.30944705 12.9988588,4.40827059 14.2567412,3.76697647 L14.2567412,3.76697647 L14.2567412,3.76697647 Z M13.4047412,3.88485882 C12.3116824,5.0647412 11.5705059,7.6285059 11.5705059,10.6722706 C11.5705059,12.5887412 12.0790941,14.9015647 12.6268588,16.8392118 L11.5532117,16.8392118 C10.5420353,14.8998 9.5788588,12.5590941 9.5788588,10.6722706 C9.5788588,7.4347412 11.2023883,4.70227059 13.4047412,3.88485882 L13.4047412,3.88485882 L13.4047412,3.88485882 Z M7.8508588,10.6722706 C7.8508588,8.0248588 9.34415295,5.72121175 11.5316824,4.55544706 C10.0825059,5.91144705 9.1330941,8.14697645 9.1330941,10.6722706 C9.1330941,12.5915647 10.0500353,14.8998 11.0425059,16.8392117 L10.5272117,16.8392117 C9.1638,14.9036823 7.8508588,12.5527412 7.8508588,10.6722706 L7.8508588,10.6722706 L7.8508588,10.6722706 Z M10.6846236,17.2846235 L18.8689765,17.2846235 C17.6453294,18.9543883 16.4280353,20.2422706 16.1389765,20.5422706 L13.3623883,20.5422706 C13.0765059,20.2366236 11.8892118,18.9427412 10.6846236,17.2846235 L10.6846236,17.2846235 L10.6846236,17.2846235 Z M13.5385059,22.6839177 L15.9826235,22.6839177 L15.9826235,21.0992117 L13.5385059,21.0992117 L13.5385059,22.6839177 L13.5385059,22.6839177 Z M15.6501529,25.7986235 L13.9052117,25.7986235 C13.4485059,25.7986235 13.0772118,25.4273294 13.0772118,24.9706235 L13.0772118,24.5506236 C13.2600353,24.4722706 13.3885059,24.2908588 13.3885059,24.0790941 C13.3885059,23.8895647 13.1389764,23.5729764 13.1319176,23.1289764 L14.4815647,23.1289764 C14.4748588,23.5105059 14.2253294,23.8899177 14.2253294,24.0790941 C14.2253294,24.3625059 14.4547412,24.5922706 14.7378,24.5922706 C15.0212117,24.5922706 15.2509764,24.3625059 15.2509764,24.0790941 C15.2509764,23.8899177 15.0010941,23.5729764 14.9943883,23.1289764 L16.4227412,23.1289764 C16.4163883,23.5105059 16.1665059,23.8895647 16.1665059,24.0790941 C16.1665059,24.2908588 16.2949765,24.4722706 16.4781529,24.5506236 L16.4781529,24.9706235 C16.4781529,25.4273294 16.1068588,25.7986235 15.6501529,25.7986235 L15.6501529,25.7986235 L15.6501529,25.7986235 Z" id="Fill-4" fill="#FEFEFE" mask="url(#mask-2)"></path>
                    </g>
                </g>
            </g>
        </g>
    </g>
</svg>