<?xml version="1.0" encoding="UTF-8"?>
<svg width="30px" height="30px" viewBox="0 0 30 30" version="1.1" xmlns="http://www.w3.org/2000/svg" xmlns:xlink="http://www.w3.org/1999/xlink">
    <!-- Generator: Sketch 39.1 (31720) - http://www.bohemiancoding.com/sketch -->
    <title>nurturer</title>
    <desc>Created with Sketch.</desc>
    <defs>
        <path d="M14.9535,29.9080588 C23.2120714,29.9080588 29.9070715,23.2918236 29.9070715,15.1304118 C29.9070715,6.969 23.2120714,0.352764706 14.9535,0.352764706 C6.69492855,0.352764706 -7.14285715e-05,6.969 -7.14285715e-05,15.1304118 C-7.14285715e-05,23.2918236 6.69492855,29.9080588 14.9535,29.9080588" id="path-1"></path>
        <path d="M14.9535,29.9080588 C23.2120714,29.9080588 29.9070715,23.2918236 29.9070715,15.1304118 C29.9070715,6.969 23.2120714,0.352764706 14.9535,0.352764706 C6.69492855,0.352764706 -7.14285715e-05,6.969 -7.14285715e-05,15.1304118 C-7.14285715e-05,23.2918236 6.69492855,29.9080588 14.9535,29.9080588" id="path-3"></path>
        <path d="M14.9535,29.9080588 C23.2120714,29.9080588 29.9070715,23.2918236 29.9070715,15.1304118 C29.9070715,6.969 23.2120714,0.352764706 14.9535,0.352764706 C6.69492855,0.352764706 -7.14285715e-05,6.969 -7.14285715e-05,15.1304118 C-7.14285715e-05,23.2918236 6.69492855,29.9080588 14.9535,29.9080588" id="path-5"></path>
    </defs>
    <g id="Page-1" stroke="none" stroke-width="1" fill="none" fill-rule="evenodd">
        <g id="nurturer">
            <g id="moneytype">
                <g id="nurturer">
                    <g id="Fill-1" fill="#DA396F">
                        <path d="M14.9535,29.9080588 C23.2120714,29.9080588 29.9070715,23.2918236 29.9070715,15.1304118 C29.9070715,6.969 23.2120714,0.352764706 14.9535,0.352764706 C6.69492855,0.352764706 -7.14285715e-05,6.969 -7.14285715e-05,15.1304118 C-7.14285715e-05,23.2918236 6.69492855,29.9080588 14.9535,29.9080588" id="path-1"></path>
                    </g>
                    <g id="Stroke-4-Clipped">
                        <mask id="mask-2" fill="white">
                            <use xlink:href="#path-1"></use>
                        </mask>
                        <g id="path-1"></g>
                        <path d="M4.12714285,15.6934588 C4.12714285,15.6934588 5.1075,5.95757645 15.3771428,5.95757645 C25.6467857,5.95757645 26.2253572,15.7132236 26.2253572,15.7132236 C26.2253572,15.7132236 24.5860714,12.4513412 19.5717857,15.0729883 C19.5717857,15.0729883 15.4253571,12.6419294 11.2789285,15.0729883 C11.2789285,15.0729883 6.1682143,12.548753 4.12714285,15.6934588 L4.12714285,15.6934588 L4.12714285,15.6934588 Z" id="Stroke-4" stroke="#FEFEFE" stroke-width="2" mask="url(#mask-2)"></path>
                    </g>
                    <g id="Stroke-6-Clipped">
                        <mask id="mask-4" fill="white">
                            <use xlink:href="#path-3"></use>
                        </mask>
                        <g id="path-1"></g>
                        <path d="M15.3771429,13.9782 L15.355,22.9100823 C15.355,22.9100823 15.6117857,25.3806706 13.4967857,25.2229059 C11.3653571,25.0637294 11.9539286,22.7452588 11.9539286,22.7452588" id="Stroke-6" stroke="#FEFEFE" stroke-width="2" mask="url(#mask-4)"></path>
                    </g>
                    <g id="Stroke-8-Clipped">
                        <mask id="mask-6" fill="white">
                            <use xlink:href="#path-5"></use>
                        </mask>
                        <g id="path-1"></g>
                        <path d="M11.1918929,14.9196353 C11.1918929,14.9196353 10.47975,6.80904705 15.0261785,5.96198825" id="Stroke-8" stroke="#FEFEFE" stroke-width="2" mask="url(#mask-6)"></path>
                    </g>
                </g>
            </g>
        </g>
    </g>
</svg>