<?xml version="1.0" encoding="UTF-8" standalone="no"?>
<svg width="60px" height="60px" viewBox="0 0 60 60" version="1.1" xmlns="http://www.w3.org/2000/svg" xmlns:xlink="http://www.w3.org/1999/xlink">
    <!-- Generator: Sketch 3.8.3 (29802) - http://www.bohemiancoding.com/sketch -->
    <title>nurturer</title>
    <desc>Created with Sketch.</desc>
    <defs>
        <path d="M29.907,59.8161176 C46.4241429,59.8161176 59.8141429,46.5836471 59.8141429,30.2608235 C59.8141429,13.938 46.4241429,0.705529412 29.907,0.705529412 C13.3898571,0.705529412 -0.000142857143,13.938 -0.000142857143,30.2608235 C-0.000142857143,46.5836471 13.3898571,59.8161176 29.907,59.8161176" id="path-1"></path>
    </defs>
    <g id="moneytype" stroke="none" stroke-width="1" fill="none" fill-rule="evenodd">
        <g id="nurturer">
            <mask id="mask-2" fill="white">
                <use xlink:href="#path-1"></use>
            </mask>
            <use id="Fill-1" fill="#DA396F" xlink:href="#path-1"></use>
            <path d="M8.25428571,31.3869176 C8.25428571,31.3869176 10.215,11.9151529 30.7542857,11.9151529 C51.2935714,11.9151529 52.4507143,31.4264471 52.4507143,31.4264471 C52.4507143,31.4264471 49.1721429,24.9026824 39.1435714,30.1459765 C39.1435714,30.1459765 30.8507143,25.2838588 22.5578571,30.1459765 C22.5578571,30.1459765 12.3364286,25.0975059 8.25428571,31.3869176 L8.25428571,31.3869176 Z" id="Stroke-4" stroke="#FEFEFE" stroke-width="2" stroke-linejoin="round" mask="url(#mask-2)"></path>
            <path d="M30.7542857,27.9564 L30.71,45.8201647 C30.71,45.8201647 31.2235714,50.7613412 26.9935714,50.4458118 C22.7307143,50.1274588 23.9078571,45.4905176 23.9078571,45.4905176" id="Stroke-6" stroke="#FEFEFE" stroke-width="2" stroke-linejoin="round" mask="url(#mask-2)"></path>
            <path d="M22.3837857,29.8392706 C22.3837857,29.8392706 20.9595,13.6180941 30.0523571,11.9239765" id="Stroke-8" stroke="#FEFEFE" stroke-width="2" stroke-linejoin="round" mask="url(#mask-2)"></path>
        </g>
    </g>
</svg>