<?xml version="1.0" encoding="UTF-8" standalone="no"?>
<svg width="60px" height="60px" viewBox="0 0 60 60" version="1.1" xmlns="http://www.w3.org/2000/svg" xmlns:xlink="http://www.w3.org/1999/xlink">
    <!-- Generator: Sketch 3.8.3 (29802) - http://www.bohemiancoding.com/sketch -->
    <title>producer(2)</title>
    <desc>Created with Sketch.</desc>
    <defs>
        <path d="M29.9998565,60 C46.5682826,60 59.9998565,46.5682657 59.9998565,29.9996417 C59.9998565,13.4310178 46.5682826,0 29.9998565,0 C13.4314304,0 -0.000143529412,13.4310178 -0.000143529412,29.9996417 C-0.000143529412,46.5682657 13.4314304,60 29.9998565,60" id="path-1"></path>
        <path d="M5.88254748,47.6264128 C6.60901266,48.6076525 7.39381967,49.5430909 8.23184235,50.427602 L8.23184235,47.6264128 L5.88254748,47.6264128 L5.88254748,47.6264128 Z" id="path-3"></path>
        <path d="M1.04803208,21.8701559 C0.36468427,24.38601 0,27.033025 0,29.7651706 C0,33.3990066 0.645063434,36.8821924 1.82692692,40.1064647 L8.23191676,40.1064647 L8.23191676,21.8701559 L1.04803208,21.8701559 L1.04803208,21.8701559 Z" id="path-5"></path>
        <path d="M6.81764442,48.8250851 C10.9384023,53.8415873 16.6522915,57.4996807 23.1858847,59.0259383 L23.1858847,47.8496432 L6.81764442,47.8496432 L6.81764442,48.8250851 L6.81764442,48.8250851 Z" id="path-7"></path>
    </defs>
    <g id="moneytype" stroke="none" stroke-width="1" fill="none" fill-rule="evenodd">
        <g id="producer(2)">
            <mask id="mask-2" fill="white">
                <use xlink:href="#path-1"></use>
            </mask>
            <use id="Fill-1" fill="#969C11" xlink:href="#path-1"></use>
            <path d="M22.4796482,53.2259141 C22.2356482,53.2259141 21.9973894,53.0988906 21.8667776,52.8721141 C21.6715776,52.5341024 21.7871188,52.1020788 22.1251306,51.9061612 L28.8853659,48.0035965 C29.1092718,47.87442 29.2492129,47.6325729 29.2492129,47.3735024 L29.2492129,40.39582 C29.2492129,40.1374671 29.1092718,39.89562 28.8853659,39.7664435 L22.8427776,36.2772435 C22.6181541,36.1480671 22.3397071,36.1480671 22.1150835,36.2772435 L16.0724953,39.7664435 C15.8478718,39.89562 15.7086482,40.1374671 15.7086482,40.39582 L15.7086482,48.2016671 C15.7086482,48.5927847 15.3921659,48.9092671 15.0017659,48.9092671 C14.6113659,48.9092671 14.2948835,48.5927847 14.2948835,48.2016671 L14.2948835,40.39582 C14.2948835,39.6336788 14.7053776,38.9224906 15.3656129,38.54142 L21.4082012,35.0529376 C22.0684365,34.6718671 22.8894247,34.6718671 23.54966,35.0529376 L29.5922482,38.54142 C30.2524835,38.9232082 30.6629776,39.6336788 30.6629776,40.39582 L30.6629776,47.3735024 C30.6629776,48.1363612 30.2524835,48.8468318 29.5922482,49.22862 L22.8327306,53.1311847 C22.7214953,53.1950553 22.5994953,53.2259141 22.4796482,53.2259141" id="Fill-33" fill="#FEFEFE" mask="url(#mask-2)"></path>
            <path d="M30.4940435,23.7515035 C30.4115141,23.7515035 30.3282671,23.7371506 30.2464553,23.7062918 C29.7319024,23.5139624 29.2754788,23.2175741 28.8886671,22.8257388 C27.4332788,21.3495388 27.4505024,18.9647976 28.9267024,17.5094094 C29.63502,16.8111388 30.5715494,16.4271976 31.5647729,16.4271976 L31.5927612,16.4271976 C32.5967494,16.4343741 33.5375847,16.8319506 34.2430318,17.5474447 C34.6291259,17.93928 34.9190553,18.4000094 35.1042082,18.9174329 C35.2355376,19.2848682 35.0446435,19.6896212 34.6764906,19.8209506 C34.3097729,19.9529976 33.9043024,19.7613859 33.7729729,19.3939506 C33.6574318,19.0717271 33.4765847,18.7846682 33.2354553,18.5399506 C32.7962553,18.0935741 32.2085024,17.8452682 31.5827141,17.8409624 L31.5654906,17.8409624 C30.9454435,17.8409624 30.3612788,18.0806565 29.9192082,18.5162682 C28.9984671,19.4240918 28.9877024,20.9117741 29.8955259,21.8332329 C30.1366553,22.0772329 30.4215612,22.2623859 30.7416318,22.3822329 C31.1076318,22.5193035 31.2935024,22.9262094 31.1564318,23.2922094 C31.05022,23.5763976 30.7803847,23.7515035 30.4940435,23.7515035" id="Fill-4" fill="#FEFEFE" mask="url(#mask-2)"></path>
            <path d="M42.9812459,32.6057612 C42.8628341,32.6057612 42.7437047,32.5806435 42.6324694,32.5296906 L41.2258812,31.8787847 C39.0284459,33.0054906 35.8463988,32.4220435 33.93674,30.4851141 C33.6625988,30.2066671 33.6654694,29.7588553 33.9439165,29.4847141 C34.2216459,29.2112906 34.6694576,29.2141612 34.9435988,29.4918906 C36.46214,31.0326788 39.20714,31.4977141 40.8168224,30.4858318 C41.0199165,30.3588082 41.2725282,30.3423024 41.4899753,30.4427729 L41.8100459,30.5913259 L41.6693871,30.2827376 C41.5681988,30.0609847 41.5882929,29.8033494 41.7217753,29.6002553 C42.7709753,28.0049259 42.3504341,25.2462906 40.8225635,23.6961729 C40.5484224,23.4184435 40.5512929,22.9706318 40.82974,22.6964906 C41.1074694,22.4223494 41.5552812,22.4259376 41.8294224,22.7036671 C43.7498459,24.6513612 44.2816224,27.8491965 43.1089871,30.0315612 L43.7441047,31.4223612 C43.8883518,31.7395612 43.8194576,32.1170435 43.5725871,32.3624788 C43.4132694,32.5217965 43.1986929,32.6057612 42.9812459,32.6057612" id="Fill-6" fill="#FEFEFE" mask="url(#mask-2)"></path>
            <path d="M41.9952706,23.8688388 L41.9952706,23.8688388 C41.2891059,23.8688388 40.5750471,23.7776976 39.8724706,23.5968506 C36.3545647,22.6926153 34.6982353,20.8461094 34.0243647,19.8263329 C33.6705647,19.2909682 33.7265412,18.5869565 34.1607176,18.1140271 C34.9393647,17.2672035 37.0607294,15.2965447 39.9442353,15.2965447 C40.4788824,15.2965447 41.0192706,15.3654388 41.5496118,15.5003565 C44.7445765,16.3141682 46.7051882,18.6558506 47.5893294,19.9799094 C48.0565176,20.6788976 47.8914588,21.6161447 47.2132824,22.1127565 C46.3190941,22.7686859 44.4510588,23.8688388 41.9952706,23.8688388 M35.2120706,19.0598859 C35.6735176,19.7524153 37.0707765,21.4166388 40.2248353,22.22758 C40.8118706,22.3782859 41.4075176,22.4550741 41.9952706,22.4550741 C44.0484588,22.4550741 45.6222588,21.5264388 46.3779412,20.9724153 C46.4432471,20.9243329 46.4590353,20.8331918 46.4138235,20.7650153 C45.6423529,19.6096035 43.9386588,17.5678976 41.2008353,16.8703447 C40.7838824,16.7641329 40.3611882,16.7103094 39.9442353,16.7103094 C37.6334118,16.7103094 35.8723059,18.3443918 35.2120706,19.0598859" id="Fill-8" fill="#FEFEFE" mask="url(#mask-2)"></path>
            <path d="M32.0130871,36.4885188 C31.6944518,36.4885188 31.3872988,36.3930718 31.12464,36.2115071 C29.8134988,35.3087071 27.4998047,33.3150835 26.7319224,30.1086365 C25.85424,26.4479188 28.3408871,23.7488482 29.4503694,22.7577776 C29.7065694,22.5295659 30.0366871,22.40326 30.3797224,22.40326 C30.66104,22.40326 30.9323106,22.4872247 31.1641106,22.6458247 C32.1745576,23.3340482 33.9973812,25.0162129 34.8513812,28.5470365 C35.6824165,31.9838482 34.2126753,34.6075659 33.2632282,35.8663188 C32.9682753,36.2560012 32.5010871,36.4885188 32.0130871,36.4885188 M30.3811576,23.8227659 C29.4553929,24.6523659 27.4100988,26.8720482 28.1069341,29.7792365 C28.7650165,32.5271071 30.7823224,34.2595071 31.9269694,35.0474835 C31.9528047,35.0654247 31.9822282,35.0747541 32.0130871,35.0747541 C32.0360518,35.0747541 32.0934635,35.0690129 32.1343694,35.0137541 C32.9338282,33.9552247 34.1710518,31.7506129 33.4770871,28.8800247 C32.7113576,25.7144835 31.0672282,24.2935424 30.3811576,23.8227659" id="Fill-10" fill="#FEFEFE" mask="url(#mask-2)"></path>
            <path d="M28.5800071,20.2555576 C28.4594424,20.2555576 28.3374424,20.2246988 28.2262071,20.1601106 C28.1946306,20.1421694 26.50816,19.1963106 25.1654424,19.8974518 C24.8195365,20.0782988 24.3925365,19.9448165 24.2116894,19.5989106 C24.0308424,19.2522871 24.1643247,18.8252871 24.5109482,18.64444 C26.55696,17.5744282 28.8405129,18.8812635 28.9373953,18.9379576 C29.2739718,19.1345929 29.3880776,19.5673341 29.1914424,19.9046282 C29.0601129,20.1299694 28.8232894,20.2555576 28.5800071,20.2555576" id="Fill-12" fill="#FEFEFE" mask="url(#mask-2)"></path>
            <path d="M31.1741576,17.7940282 C30.9516871,17.7940282 30.7320871,17.6885341 30.5950165,17.4926165 C30.52684,17.3942988 28.9372518,15.0777341 30.0804635,13.1436753 C30.2785341,12.8078165 30.7127106,12.6958635 31.0485694,12.8946518 C31.3844282,13.09344 31.4963812,13.5268988 31.2975929,13.8627576 C30.6186988,15.0117106 31.7439694,16.66804 31.7554518,16.6845459 C31.9764871,17.0053341 31.8975459,17.4452518 31.5774753,17.6677224 C31.45404,17.7531224 31.3133812,17.7940282 31.1741576,17.7940282" id="Fill-14" fill="#FEFEFE" mask="url(#mask-2)"></path>
            <path d="M33.6241329,27.7576247 C33.4411329,27.7576247 33.2588506,27.6872953 33.1203447,27.5466365 C32.8462035,27.2689071 32.8497918,26.8210953 33.1275212,26.5469541 L37.9034624,21.8391894 C38.1819094,21.5650482 38.6290035,21.5679188 38.9031447,21.8463659 C39.1772859,22.1240953 39.1744153,22.5719071 38.8959682,22.8460482 L34.1207447,27.5538129 C33.9829565,27.6901659 33.8035447,27.7576247 33.6241329,27.7576247" id="Fill-16" fill="#FEFEFE" mask="url(#mask-2)"></path>
            <path d="M34.4763388,30.7322 C34.2933388,30.7322 34.1110565,30.6618706 33.9725506,30.5212118 C33.6984094,30.2434824 33.7019976,29.7956706 33.9797271,29.5215294 L40.8655506,22.7333059 C41.1439976,22.4591647 41.5918094,22.4620353 41.8659506,22.7404824 C42.1393741,23.0182118 42.1365035,23.4660235 41.8587741,23.7401647 L34.9729506,30.5283882 C34.8351624,30.6647412 34.6557506,30.7322 34.4763388,30.7322" id="Fill-18" fill="#FEFEFE" mask="url(#mask-2)"></path>
            <path d="M37.2323906,32.0668082 C37.0493906,32.0668082 36.8671082,31.9964788 36.7286024,31.85582 C36.4544612,31.5780906 36.4580494,31.1302788 36.7357788,30.8561376 L42.1611906,25.5082318 C42.43892,25.2340906 42.8867318,25.2376788 43.1608729,25.5154082 C43.4350141,25.7931376 43.4314259,26.2409494 43.1536965,26.5150906 L37.7290024,31.8629965 C37.5912141,31.9993494 37.4118024,32.0668082 37.2323906,32.0668082" id="Fill-20" fill="#FEFEFE" mask="url(#mask-2)"></path>
            <path d="M15.00112,40.3292224 C14.8812729,40.3292224 14.7599906,40.2990812 14.6480376,40.2344929 L7.88852,36.3319282 C7.22828471,35.95014 6.81779059,35.2396694 6.81779059,34.4768106 L6.81779059,27.4991282 C6.81779059,26.7369871 7.22828471,26.0265165 7.88852,25.6447282 L13.9311082,22.1562459 C14.5913435,21.7751753 15.4123318,21.7751753 16.0725671,22.1562459 L22.1151553,25.6447282 C22.7753906,26.0265165 23.1858847,26.7369871 23.1858847,27.4991282 L23.1858847,35.3049753 C23.1858847,35.6960929 22.8694024,36.0125753 22.4790024,36.0125753 C22.0886024,36.0125753 21.77212,35.6960929 21.77212,35.3049753 L21.77212,27.4991282 C21.77212,27.2407753 21.6321788,26.9989282 21.4082729,26.8697518 L15.3656847,23.3805518 C15.1410612,23.2513753 14.8626141,23.2513753 14.6379906,23.3805518 L8.59540235,26.8697518 C8.37149647,26.9989282 8.23155529,27.2407753 8.23155529,27.4991282 L8.23155529,34.4768106 C8.23155529,34.7358812 8.37149647,34.9777282 8.59540235,35.1069047 L15.3556376,39.0094694 C15.6936494,39.2053871 15.8091906,39.6374106 15.6139906,39.9754224 C15.4833788,40.2021988 15.2458376,40.3292224 15.00112,40.3292224" id="Fill-25" fill="#FEFEFE" mask="url(#mask-2)"></path>
            <mask id="mask-4" fill="white">
                <use xlink:href="#path-3"></use>
            </mask>
            <g id="Clip-28"></g>
            <path d="M0.0477952941,66.0855035 C-0.322510588,66.0855035 -0.692816471,65.9900565 -1.02293412,65.79988 L-7.06552235,62.31068 C-7.72575765,61.9296094 -8.13625176,61.2191388 -8.13625176,60.45628 L-8.13625176,52.6504329 C-8.13625176,52.2600329 -7.81976941,51.9435506 -7.42936941,51.9435506 C-7.03896941,51.9435506 -6.72248706,52.2600329 -6.72248706,52.6504329 L-6.72248706,60.45628 C-6.72248706,60.7153506 -6.58254588,60.95648 -6.35864,61.0863741 L-0.316051765,64.5748565 C-0.0914282353,64.7047506 0.187018824,64.7047506 0.411642353,64.5748565 L6.45423059,61.0863741 C6.67813647,60.95648 6.81807765,60.7153506 6.81807765,60.45628 L6.81807765,53.4785976 C6.81807765,53.2195271 6.67813647,52.9783976 6.45423059,52.8485035 L-0.306004706,48.9459388 C-0.644016471,48.7507388 -0.759557647,48.3187153 -0.564357647,47.9799859 C-0.369157647,47.6419741 0.0628658824,47.5257153 0.401595294,47.7216329 L7.16111294,51.6241976 C7.82134824,52.0052682 8.23184235,52.7164565 8.23184235,53.4785976 L8.23184235,60.45628 C8.23184235,61.2191388 7.82134824,61.9296094 7.16111294,62.31068 L1.11852471,65.79988 C0.788407059,65.9900565 0.418101176,66.0855035 0.0477952941,66.0855035" id="Fill-27" fill="#FEFEFE" mask="url(#mask-4)"></path>
            <mask id="mask-6" fill="white">
                <use xlink:href="#path-5"></use>
            </mask>
            <g id="Clip-23"></g>
            <path d="M0.0477235294,40.1064647 C-0.322582353,40.1064647 -0.692888235,40.0110176 -1.02300588,39.8208412 L-7.06559412,36.3316412 C-7.72582941,35.9505706 -8.13632353,35.2401 -8.13632353,34.4772412 L-8.13632353,27.4995588 C-8.13632353,26.7367 -7.72582941,26.0262294 -7.06559412,25.6451588 L-1.02300588,22.1559588 C-0.362770588,21.7748882 0.458217647,21.7748882 1.11845294,22.1559588 L7.87797059,26.0592412 C8.2167,26.2544412 8.33224118,26.6864647 8.13704118,27.0251941 C7.94184118,27.3632059 7.5091,27.4794647 7.17108824,27.2835471 L0.411570588,23.3809824 C0.186947059,23.2510882 -0.0915,23.2510882 -0.316123529,23.3809824 L-6.35871176,26.8694647 C-6.58261765,26.9993588 -6.72255882,27.2404882 -6.72255882,27.4995588 L-6.72255882,34.4772412 C-6.72255882,34.7363118 -6.58261765,34.9774412 -6.35871176,35.1073353 L-0.316123529,38.5958176 C-0.0915,38.7257118 0.186947059,38.7257118 0.411570588,38.5958176 L7.17108824,34.6932529 C7.5091,34.4980529 7.94184118,34.6135941 8.13704118,34.9516059 C8.33224118,35.2896176 8.2167,35.7223588 7.87797059,35.9175588 L1.11845294,39.8208412 C0.788335294,40.0110176 0.418029412,40.1064647 0.0477235294,40.1064647" id="Fill-22" fill="#FEFEFE" mask="url(#mask-6)"></path>
            <mask id="mask-8" fill="white">
                <use xlink:href="#path-7"></use>
            </mask>
            <g id="Clip-31"></g>
            <path d="M15.0018376,66.0855035 C14.6315318,66.0855035 14.2612259,65.9900565 13.9311082,65.79988 L7.17159059,61.8965976 C6.83286118,61.7013976 6.71732,61.2693741 6.91252,60.9313624 C7.10772,60.5926329 7.54046118,60.4770918 7.87847294,60.6722918 L14.6379906,64.5748565 C14.8626141,64.7047506 15.1410612,64.7047506 15.3656847,64.5748565 L21.4082729,61.0863741 C21.6328965,60.95648 21.77212,60.7153506 21.77212,60.45628 L21.77212,53.4785976 C21.77212,53.2195271 21.6328965,52.9783976 21.4082729,52.8485035 L15.3656847,49.3600212 C15.1410612,49.2301271 14.8626141,49.2301271 14.6379906,49.3600212 L7.87847294,53.2625859 C7.54046118,53.4577859 7.10772,53.3422447 6.91252,53.0042329 C6.71732,52.6662212 6.83286118,52.23348 7.17159059,52.03828 L13.9311082,48.1357153 C14.5913435,47.7539271 15.4123318,47.7546447 16.0725671,48.1357153 L22.1151553,51.6241976 C22.7753906,52.0052682 23.1858847,52.7164565 23.1858847,53.4785976 L23.1858847,60.45628 C23.1858847,61.2191388 22.7753906,61.9296094 22.1151553,62.31068 L16.0725671,65.79988 C15.7424494,65.9900565 15.3721435,66.0855035 15.0018376,66.0855035" id="Fill-30" fill="#FEFEFE" mask="url(#mask-8)"></path>
            <path d="M-7.42929765,53.1059235 C-7.79960353,53.1059235 -8.16990941,53.0104765 -8.50002706,52.8203 L-14.5426153,49.3311 C-15.2028506,48.9500294 -15.6133447,48.2395588 -15.6133447,47.4767 L-15.6133447,40.4990176 C-15.6133447,39.7368765 -15.2028506,39.0256882 -14.5426153,38.6446176 L-7.78309765,34.7420529 C-7.44436824,34.5468529 -7.01234471,34.6623941 -6.81714471,35.0004059 C-6.62194471,35.3391353 -6.73748588,35.7711588 -7.07549765,35.9663588 L-13.8357329,39.8689235 C-14.0596388,39.9988176 -14.19958,40.2399471 -14.19958,40.4990176 L-14.19958,47.4767 C-14.19958,47.7357706 -14.0596388,47.9769 -13.8357329,48.1067941 L-7.79314471,51.5952765 C-7.56852118,51.7251706 -7.29007412,51.7251706 -7.06545059,51.5952765 L-1.02286235,48.1067941 C-0.798238824,47.9769 -0.659015294,47.7357706 -0.659015294,47.4767 L-0.659015294,39.6708529 C-0.659015294,39.2804529 -0.342532941,38.9639706 0.0478670588,38.9639706 C0.438267059,38.9639706 0.754749412,39.2804529 0.754749412,39.6708529 L0.754749412,47.4767 C0.754749412,48.2395588 0.344255294,48.9500294 -0.31598,49.3311 L-6.35856824,52.8203 C-6.68868588,53.0104765 -7.05899176,53.1059235 -7.42929765,53.1059235" id="Fill-35" fill="#FEFEFE" mask="url(#mask-8)"></path>
        </g>
    </g>
</svg>