<?xml version="1.0" encoding="UTF-8"?>
<svg width="30px" height="30px" viewBox="0 0 30 30" version="1.1" xmlns="http://www.w3.org/2000/svg" xmlns:xlink="http://www.w3.org/1999/xlink">
    <!-- Generator: Sketch 39.1 (31720) - http://www.bohemiancoding.com/sketch -->
    <title>producer</title>
    <desc>Created with Sketch.</desc>
    <defs>
        <path d="M14.9999283,30 C23.2841413,30 29.9999282,23.2841328 29.9999282,14.9998209 C29.9999282,6.7155089 23.2841413,0 14.9999283,0 C6.7157152,0 -7.1764706e-05,6.7155089 -7.1764706e-05,14.9998209 C-7.1764706e-05,23.2841328 6.7157152,30 14.9999283,30" id="path-1"></path>
        <path d="M14.9999283,30 C23.2841413,30 29.9999282,23.2841328 29.9999282,14.9998209 C29.9999282,6.7155089 23.2841413,0 14.9999283,0 C6.7157152,0 -7.1764706e-05,6.7155089 -7.1764706e-05,14.9998209 C-7.1764706e-05,23.2841328 6.7157152,30 14.9999283,30" id="path-3"></path>
        <path d="M14.9999283,30 C23.2841413,30 29.9999282,23.2841328 29.9999282,14.9998209 C29.9999282,6.7155089 23.2841413,0 14.9999283,0 C6.7157152,0 -7.1764706e-05,6.7155089 -7.1764706e-05,14.9998209 C-7.1764706e-05,23.2841328 6.7157152,30 14.9999283,30" id="path-5"></path>
        <path d="M14.9999283,30 C23.2841413,30 29.9999282,23.2841328 29.9999282,14.9998209 C29.9999282,6.7155089 23.2841413,0 14.9999283,0 C6.7157152,0 -7.1764706e-05,6.7155089 -7.1764706e-05,14.9998209 C-7.1764706e-05,23.2841328 6.7157152,30 14.9999283,30" id="path-7"></path>
        <path d="M14.9999283,30 C23.2841413,30 29.9999282,23.2841328 29.9999282,14.9998209 C29.9999282,6.7155089 23.2841413,0 14.9999283,0 C6.7157152,0 -7.1764706e-05,6.7155089 -7.1764706e-05,14.9998209 C-7.1764706e-05,23.2841328 6.7157152,30 14.9999283,30" id="path-9"></path>
        <path d="M14.9999283,30 C23.2841413,30 29.9999282,23.2841328 29.9999282,14.9998209 C29.9999282,6.7155089 23.2841413,0 14.9999283,0 C6.7157152,0 -7.1764706e-05,6.7155089 -7.1764706e-05,14.9998209 C-7.1764706e-05,23.2841328 6.7157152,30 14.9999283,30" id="path-11"></path>
        <path d="M14.9999283,30 C23.2841413,30 29.9999282,23.2841328 29.9999282,14.9998209 C29.9999282,6.7155089 23.2841413,0 14.9999283,0 C6.7157152,0 -7.1764706e-05,6.7155089 -7.1764706e-05,14.9998209 C-7.1764706e-05,23.2841328 6.7157152,30 14.9999283,30" id="path-13"></path>
        <path d="M14.9999283,30 C23.2841413,30 29.9999282,23.2841328 29.9999282,14.9998209 C29.9999282,6.7155089 23.2841413,0 14.9999283,0 C6.7157152,0 -7.1764706e-05,6.7155089 -7.1764706e-05,14.9998209 C-7.1764706e-05,23.2841328 6.7157152,30 14.9999283,30" id="path-15"></path>
        <path d="M14.9999283,30 C23.2841413,30 29.9999282,23.2841328 29.9999282,14.9998209 C29.9999282,6.7155089 23.2841413,0 14.9999283,0 C6.7157152,0 -7.1764706e-05,6.7155089 -7.1764706e-05,14.9998209 C-7.1764706e-05,23.2841328 6.7157152,30 14.9999283,30" id="path-17"></path>
        <path d="M14.9999283,30 C23.2841413,30 29.9999282,23.2841328 29.9999282,14.9998209 C29.9999282,6.7155089 23.2841413,0 14.9999283,0 C6.7157152,0 -7.1764706e-05,6.7155089 -7.1764706e-05,14.9998209 C-7.1764706e-05,23.2841328 6.7157152,30 14.9999283,30" id="path-19"></path>
        <path d="M14.9999283,30 C23.2841413,30 29.9999282,23.2841328 29.9999282,14.9998209 C29.9999282,6.7155089 23.2841413,0 14.9999283,0 C6.7157152,0 -7.1764706e-05,6.7155089 -7.1764706e-05,14.9998209 C-7.1764706e-05,23.2841328 6.7157152,30 14.9999283,30" id="path-21"></path>
        <path d="M0.44127374,0.3132064 C0.80450633,0.80382625 1.19690984,1.27154545 1.61592118,1.713801 L1.61592118,0.3132064 L0.44127374,0.3132064 L0.44127374,0.3132064 L0.44127374,0.3132064 Z" id="path-23"></path>
        <path d="M0.52401604,0.43507795 C0.182342135,1.693005 0,3.0165125 0,4.3825853 C0,6.1995033 0.322531717,7.9410962 0.91346346,9.55323235 L4.11595838,9.55323235 L4.11595838,0.43507795 L0.52401604,0.43507795 L0.52401604,0.43507795 L0.52401604,0.43507795 Z" id="path-25"></path>
        <path d="M0.40882221,0.91254255 C2.46920115,3.42079365 5.32614575,5.24984035 8.59294235,6.01296915 L8.59294235,0.4248216 L0.40882221,0.4248216 L0.40882221,0.91254255 L0.40882221,0.91254255 L0.40882221,0.91254255 Z" id="path-27"></path>
        <path d="M0.40882221,0.91254255 C2.46920115,3.42079365 5.32614575,5.24984035 8.59294235,6.01296915 L8.59294235,0.4248216 L0.40882221,0.4248216 L0.40882221,0.91254255 L0.40882221,0.91254255 L0.40882221,0.91254255 Z" id="path-29"></path>
    </defs>
    <g id="Page-1" stroke="none" stroke-width="1" fill="none" fill-rule="evenodd">
        <g id="producer">
            <g id="moneytype">
                <g id="producer(2)">
                    <g id="Fill-1" fill="#969C11">
                        <path d="M14.9999283,30 C23.2841413,30 29.9999282,23.2841328 29.9999282,14.9998209 C29.9999282,6.7155089 23.2841413,0 14.9999283,0 C6.7157152,0 -7.1764706e-05,6.7155089 -7.1764706e-05,14.9998209 C-7.1764706e-05,23.2841328 6.7157152,30 14.9999283,30" id="path-1"></path>
                    </g>
                    <g id="Fill-33-Clipped">
                        <mask id="mask-2" fill="white">
                            <use xlink:href="#path-1"></use>
                        </mask>
                        <g id="path-1"></g>
                        <path d="M11.2398241,26.612957 C11.1178241,26.612957 10.9986947,26.5494453 10.9333888,26.436057 C10.8357888,26.2670512 10.8935594,26.0510394 11.0625653,25.9530806 L14.442683,24.0017983 C14.5546359,23.93721 14.6246064,23.8162864 14.6246064,23.6867512 L14.6246064,20.19791 C14.6246064,20.0687336 14.5546359,19.94781 14.442683,19.8832218 L11.4213888,18.1386217 C11.3090771,18.0740335 11.1698535,18.0740335 11.0575418,18.1386217 L8.03624765,19.8832218 C7.9239359,19.94781 7.8543241,20.0687336 7.8543241,20.19791 L7.8543241,24.1008336 C7.8543241,24.2963924 7.69608295,24.4546336 7.50088295,24.4546336 C7.30568295,24.4546336 7.14744175,24.2963924 7.14744175,24.1008336 L7.14744175,20.19791 C7.14744175,19.8168394 7.3526888,19.4612453 7.68280645,19.27071 L10.7041006,17.5264688 C11.0342183,17.3359336 11.4447123,17.3359336 11.77483,17.5264688 L14.7961241,19.27071 C15.1262418,19.4616041 15.3314888,19.8168394 15.3314888,20.19791 L15.3314888,23.6867512 C15.3314888,24.0681806 15.1262418,24.4234159 14.7961241,24.61431 L11.4163653,26.5655923 C11.3607477,26.5975276 11.2997477,26.612957 11.2398241,26.612957" id="Fill-33" fill="#FEFEFE" mask="url(#mask-2)"></path>
                    </g>
                    <g id="Fill-4-Clipped">
                        <mask id="mask-4" fill="white">
                            <use xlink:href="#path-3"></use>
                        </mask>
                        <g id="path-1"></g>
                        <path d="M15.2470217,11.8757517 C15.205757,11.8757517 15.1641335,11.8685753 15.1232276,11.8531459 C14.8659512,11.7569812 14.6377394,11.6087871 14.4443335,11.4128694 C13.7166394,10.6747694 13.7252512,9.4823988 14.4633512,8.7547047 C14.81751,8.4055694 15.2857747,8.2135988 15.7823864,8.2135988 L15.7963806,8.2135988 C16.2983747,8.21718705 16.7687923,8.4159753 17.1215159,8.77372235 C17.3145629,8.96964 17.4595276,9.2000047 17.5521041,9.45871645 C17.6177688,9.6424341 17.5223217,9.8448106 17.3382453,9.9104753 C17.1548864,9.9764988 16.9521512,9.88069295 16.8864864,9.6969753 C16.8287159,9.53586355 16.7382923,9.3923341 16.6177276,9.2699753 C16.3981276,9.04678705 16.1042512,8.9226341 15.791357,8.9204812 L15.7827453,8.9204812 C15.4727217,8.9204812 15.1806394,9.04032825 14.9596041,9.2581341 C14.4992335,9.7120459 14.4938512,10.455887 14.9477629,10.9166164 C15.0683276,11.0386164 15.2107806,11.131193 15.3708159,11.1911165 C15.5538159,11.2596517 15.6467512,11.4631047 15.5782159,11.6461047 C15.52511,11.7881988 15.3901923,11.8757517 15.2470217,11.8757517" id="Fill-4" fill="#FEFEFE" mask="url(#mask-4)"></path>
                    </g>
                    <g id="Fill-6-Clipped">
                        <mask id="mask-6" fill="white">
                            <use xlink:href="#path-5"></use>
                        </mask>
                        <g id="path-1"></g>
                        <path d="M21.4906229,16.3028806 C21.431417,16.3028806 21.3718523,16.2903218 21.3162347,16.2648453 L20.6129406,15.9393924 C19.5142229,16.5027453 17.9231994,16.2110218 16.96837,15.2425571 C16.8312994,15.1033336 16.8327347,14.8794277 16.9719582,14.7423571 C17.1108229,14.6056453 17.3347288,14.6070806 17.4717994,14.7459453 C18.23107,15.5163394 19.60357,15.748857 20.4084112,15.2429159 C20.5099582,15.1794041 20.6362641,15.1711512 20.7449876,15.2213865 L20.9050229,15.295663 L20.8346935,15.1413688 C20.7840994,15.0304923 20.7941464,14.9016747 20.8608876,14.8001277 C21.3854876,14.0024629 21.175217,12.6231453 20.4112817,11.8480865 C20.2742112,11.7092217 20.2756464,11.4853159 20.41487,11.3482453 C20.5537347,11.2111747 20.7776406,11.2129688 20.9147112,11.3518336 C21.8749229,12.3256806 22.1408112,13.9245983 21.5544935,15.0157806 L21.8720523,15.7111806 C21.9441759,15.8697806 21.9097288,16.0585218 21.7862935,16.1812394 C21.7066347,16.2608983 21.5993464,16.3028806 21.4906229,16.3028806" id="Fill-6" fill="#FEFEFE" mask="url(#mask-6)"></path>
                    </g>
                    <g id="Fill-8-Clipped">
                        <mask id="mask-8" fill="white">
                            <use xlink:href="#path-7"></use>
                        </mask>
                        <g id="path-1"></g>
                        <path d="M20.9976353,11.9344194 L20.9976353,11.9344194 C20.644553,11.9344194 20.2875235,11.8888488 19.9362353,11.7984253 C18.1772823,11.3463076 17.3491177,10.4230547 17.0121823,9.91316645 C16.8352823,9.6454841 16.8632706,9.29347825 17.0803588,9.05701355 C17.4696823,8.63360175 18.5303647,7.64827235 19.9721177,7.64827235 C20.2394412,7.64827235 20.5096353,7.6827194 20.7748059,7.75017825 C22.3722883,8.1570841 23.3525941,9.3279253 23.7946647,9.9899547 C24.0282588,10.3394488 23.9457294,10.8080723 23.6066412,11.0563782 C23.1595471,11.384343 22.2255294,11.9344194 20.9976353,11.9344194 M17.6060353,9.52994295 C17.8367588,9.87620765 18.5353883,10.7083194 20.1124177,11.11379 C20.4059353,11.189143 20.7037588,11.2275371 20.9976353,11.2275371 C22.0242294,11.2275371 22.8111294,10.7632194 23.1889706,10.4862077 C23.2216236,10.4621665 23.2295176,10.4165959 23.2069117,10.3825077 C22.8211764,9.80480175 21.9693294,8.7839488 20.6004177,8.43517235 C20.3919412,8.38206645 20.1805941,8.3551547 19.9721177,8.3551547 C18.8167059,8.3551547 17.936153,9.1721959 17.6060353,9.52994295" id="Fill-8" fill="#FEFEFE" mask="url(#mask-8)"></path>
                    </g>
                    <g id="Fill-10-Clipped">
                        <mask id="mask-10" fill="white">
                            <use xlink:href="#path-9"></use>
                        </mask>
                        <g id="path-1"></g>
                        <path d="M16.0065435,18.2442594 C15.8472259,18.2442594 15.6936494,18.1965359 15.56232,18.1057535 C14.9067494,17.6543535 13.7499023,16.6575418 13.3659612,15.0543182 C12.92712,13.2239594 14.1704435,11.8744241 14.7251847,11.3788888 C14.8532847,11.264783 15.0183436,11.20163 15.1898612,11.20163 C15.33052,11.20163 15.4661553,11.2436123 15.5820553,11.3229123 C16.0872788,11.6670241 16.9986906,12.5081064 17.4256906,14.2735183 C17.8412083,15.9919241 17.1063376,17.3037829 16.6316141,17.9331594 C16.4841377,18.1280006 16.2505435,18.2442594 16.0065435,18.2442594 M15.1905788,11.911383 C14.7276964,12.3261829 13.7050494,13.4360241 14.0534671,14.8896182 C14.3825083,16.2635536 15.3911612,17.1297536 15.9634847,17.5237417 C15.9764024,17.5327124 15.9911141,17.537377 16.0065435,17.537377 C16.0180259,17.537377 16.0467317,17.5345064 16.0671847,17.506877 C16.4669141,16.9776124 17.0855259,15.8753065 16.7385435,14.4400123 C16.3556788,12.8572418 15.5336141,12.1467712 15.1905788,11.911383" id="Fill-10" fill="#FEFEFE" mask="url(#mask-10)"></path>
                    </g>
                    <g id="Fill-12-Clipped">
                        <mask id="mask-12" fill="white">
                            <use xlink:href="#path-11"></use>
                        </mask>
                        <g id="path-1"></g>
                        <path d="M14.2900036,10.1277788 C14.2297212,10.1277788 14.1687212,10.1123494 14.1131035,10.0800553 C14.0973153,10.0710847 13.25408,9.5981553 12.5827212,9.9487259 C12.4097683,10.0391494 12.1962682,9.97240825 12.1058447,9.7994553 C12.0154212,9.62614355 12.0821624,9.41264355 12.2554741,9.32222 C13.27848,8.7872141 14.4202565,9.44063175 14.4686976,9.4689788 C14.6369859,9.56729645 14.6940388,9.78366705 14.5957212,9.9523141 C14.5300565,10.0649847 14.4116447,10.1277788 14.2900036,10.1277788" id="Fill-12" fill="#FEFEFE" mask="url(#mask-12)"></path>
                    </g>
                    <g id="Fill-14-Clipped">
                        <mask id="mask-14" fill="white">
                            <use xlink:href="#path-13"></use>
                        </mask>
                        <g id="path-1"></g>
                        <path d="M15.5870788,8.8970141 C15.4758436,8.8970141 15.3660436,8.84426705 15.2975082,8.74630825 C15.26342,8.6971494 14.4686259,7.53886705 15.0402318,6.57183765 C15.1392671,6.40390825 15.3563553,6.34793175 15.5242847,6.4473259 C15.6922141,6.54672 15.7481906,6.7634494 15.6487965,6.9313788 C15.3093494,7.5058553 15.8719847,8.33402 15.8777259,8.34227295 C15.9882435,8.50266705 15.948773,8.7226259 15.7887376,8.8338612 C15.72702,8.8765612 15.6566906,8.8970141 15.5870788,8.8970141" id="Fill-14" fill="#FEFEFE" mask="url(#mask-14)"></path>
                    </g>
                    <g id="Fill-16-Clipped">
                        <mask id="mask-16" fill="white">
                            <use xlink:href="#path-15"></use>
                        </mask>
                        <g id="path-1"></g>
                        <path d="M16.8120664,13.8788124 C16.7205664,13.8788124 16.6294253,13.8436476 16.5601723,13.7733183 C16.4231018,13.6344535 16.4248959,13.4105476 16.5637606,13.2734771 L18.9517312,10.9195947 C19.0909547,10.7825241 19.3145018,10.7839594 19.4515723,10.9231829 C19.588643,11.0620477 19.5872076,11.2859536 19.4479841,11.4230241 L17.0603724,13.7769065 C16.9914783,13.845083 16.9017724,13.8788124 16.8120664,13.8788124" id="Fill-16" fill="#FEFEFE" mask="url(#mask-16)"></path>
                    </g>
                    <g id="Fill-18-Clipped">
                        <mask id="mask-18" fill="white">
                            <use xlink:href="#path-17"></use>
                        </mask>
                        <g id="path-1"></g>
                        <path d="M17.2381694,15.3661 C17.1466694,15.3661 17.0555282,15.3309353 16.9862753,15.2606059 C16.8492047,15.1217412 16.8509988,14.8978353 16.9898635,14.7607647 L20.4327753,11.366653 C20.5719988,11.2295823 20.7959047,11.2310177 20.9329753,11.3702412 C21.069687,11.5091059 21.0682518,11.7330117 20.929387,11.8700824 L17.4864753,15.2641941 C17.4175812,15.3323706 17.3278753,15.3661 17.2381694,15.3661" id="Fill-18" fill="#FEFEFE" mask="url(#mask-18)"></path>
                    </g>
                    <g id="Fill-20-Clipped">
                        <mask id="mask-20" fill="white">
                            <use xlink:href="#path-19"></use>
                        </mask>
                        <g id="path-1"></g>
                        <path d="M18.6161953,16.0334041 C18.5246953,16.0334041 18.4335541,15.9982394 18.3643012,15.92791 C18.2272306,15.7890453 18.2290247,15.5651394 18.3678894,15.4280688 L21.0805953,12.7541159 C21.21946,12.6170453 21.4433659,12.6188394 21.5804365,12.7577041 C21.7175071,12.8965688 21.715713,13.1204747 21.5768483,13.2575453 L18.8645012,15.9314983 C18.7956071,15.9996747 18.7059012,16.0334041 18.6161953,16.0334041" id="Fill-20" fill="#FEFEFE" mask="url(#mask-20)"></path>
                    </g>
                    <g id="Fill-25-Clipped">
                        <mask id="mask-22" fill="white">
                            <use xlink:href="#path-21"></use>
                        </mask>
                        <g id="path-1"></g>
                        <path d="M7.50056,20.1646112 C7.44063645,20.1646112 7.3799953,20.1495406 7.3240188,20.1172465 L3.94426,18.1659641 C3.61414235,17.97507 3.4088953,17.6198347 3.4088953,17.2384053 L3.4088953,13.7495641 C3.4088953,13.3684936 3.61414235,13.0132583 3.94426,12.8223641 L6.9655541,11.078123 C7.29567175,10.8875877 7.7061659,10.8875877 8.03628355,11.078123 L11.0575777,12.8223641 C11.3876953,13.0132583 11.5929423,13.3684936 11.5929423,13.7495641 L11.5929423,17.6524877 C11.5929423,17.8480464 11.4347012,18.0062877 11.2395012,18.0062877 C11.0443012,18.0062877 10.88606,17.8480464 10.88606,17.6524877 L10.88606,13.7495641 C10.88606,13.6203877 10.8160894,13.4994641 10.7041365,13.4348759 L7.68284235,11.6902759 C7.5705306,11.6256877 7.43130705,11.6256877 7.3189953,11.6902759 L4.29770118,13.4348759 C4.18574824,13.4994641 4.11577764,13.6203877 4.11577764,13.7495641 L4.11577764,17.2384053 C4.11577764,17.3679406 4.18574824,17.4888641 4.29770118,17.5534524 L7.6778188,19.5047347 C7.8468247,19.6026936 7.9045953,19.8187053 7.8069953,19.9877112 C7.7416894,20.1010994 7.6229188,20.1646112 7.50056,20.1646112" id="Fill-25" fill="#FEFEFE" mask="url(#mask-22)"></path>
                    </g>
                    <g id="Fill-27-Clipped" transform="translate(2.500000, 23.500000)">
                        <mask id="mask-24" fill="white">
                            <use xlink:href="#path-23"></use>
                        </mask>
                        <g id="path-3"></g>
                        <path d="M-2.47610235,9.54275175 C-2.66125529,9.54275175 -2.84640824,9.49502825 -3.01146706,9.39994 L-6.03276118,7.65534 C-6.36287883,7.4648047 -6.56812588,7.1095694 -6.56812588,6.72814 L-6.56812588,2.82521645 C-6.56812588,2.63001645 -6.4098847,2.4717753 -6.2146847,2.4717753 C-6.0194847,2.4717753 -5.86124353,2.63001645 -5.86124353,2.82521645 L-5.86124353,6.72814 C-5.86124353,6.8576753 -5.79127294,6.97824 -5.67932,7.04318705 L-2.65802588,8.78742825 C-2.54571412,8.8523753 -2.40649059,8.8523753 -2.29417882,8.78742825 L0.727115295,7.04318705 C0.839068235,6.97824 0.909038825,6.8576753 0.909038825,6.72814 L0.909038825,3.2392988 C0.909038825,3.10976355 0.839068235,2.9891988 0.727115295,2.92425175 L-2.65300235,0.9729694 C-2.82200824,0.8753694 -2.87977882,0.65935765 -2.78217882,0.48999295 C-2.68457882,0.32098705 -2.46856706,0.26285765 -2.29920235,0.36081645 L1.08055647,2.3120988 C1.41067412,2.5026341 1.61592118,2.85822825 1.61592118,3.2392988 L1.61592118,6.72814 C1.61592118,7.1095694 1.41067412,7.4648047 1.08055647,7.65534 L-1.94073765,9.39994 C-2.10579647,9.49502825 -2.29094941,9.54275175 -2.47610235,9.54275175" id="Fill-27" fill="#FEFEFE" mask="url(#mask-24)"></path>
                    </g>
                    <g id="Fill-22-Clipped" transform="translate(0.000000, 10.500000)">
                        <mask id="mask-26" fill="white">
                            <use xlink:href="#path-25"></use>
                        </mask>
                        <g id="path-5"></g>
                        <path d="M0.0238617647,9.55323235 C-0.161291176,9.55323235 -0.346444117,9.5055088 -0.51150294,9.4104206 L-3.53279706,7.6658206 C-3.86291471,7.4752853 -4.06816177,7.12005 -4.06816177,6.7386206 L-4.06816177,3.2497794 C-4.06816177,2.86835 -3.86291471,2.5131147 -3.53279706,2.3225794 L-0.51150294,0.5779794 C-0.181385294,0.3874441 0.229108823,0.3874441 0.55922647,0.5779794 L3.9389853,2.5296206 C4.10835,2.6272206 4.16612059,2.84323235 4.06852059,3.01259705 C3.97092059,3.18160295 3.75455,3.23973235 3.58554412,3.14177355 L0.205785294,1.1904912 C0.0934735295,1.1255441 -0.04575,1.1255441 -0.158061765,1.1904912 L-3.17935588,2.93473235 C-3.29130883,2.9996794 -3.36127941,3.1202441 -3.36127941,3.2497794 L-3.36127941,6.7386206 C-3.36127941,6.8681559 -3.29130883,6.9887206 -3.17935588,7.05366765 L-0.158061765,8.7979088 C-0.04575,8.8628559 0.0934735295,8.8628559 0.205785294,8.7979088 L3.58554412,6.84662645 C3.75455,6.74902645 3.97092059,6.80679705 4.06852059,6.97580295 C4.16612059,7.1448088 4.10835,7.3611794 3.9389853,7.4587794 L0.55922647,9.4104206 C0.394167647,9.5055088 0.209014706,9.55323235 0.0238617647,9.55323235" id="Fill-22" fill="#FEFEFE" mask="url(#mask-26)"></path>
                    </g>
                    <g id="Fill-30-Clipped" transform="translate(3.000000, 23.500000)">
                        <mask id="mask-28" fill="white">
                            <use xlink:href="#path-27"></use>
                        </mask>
                        <g id="path-7"></g>
                        <path d="M4.5009188,9.54275175 C4.3157659,9.54275175 4.13061295,9.49502825 3.9655541,9.39994 L0.585795295,7.4482988 C0.41643059,7.3506988 0.35866,7.13468705 0.45626,6.9656812 C0.55386,6.79631645 0.77023059,6.7385459 0.93923647,6.8361459 L4.3189953,8.78742825 C4.43130705,8.8523753 4.5705306,8.8523753 4.68284235,8.78742825 L7.70413645,7.04318705 C7.81644825,6.97824 7.88606,6.8576753 7.88606,6.72814 L7.88606,3.2392988 C7.88606,3.10976355 7.81644825,2.9891988 7.70413645,2.92425175 L4.68284235,1.1800106 C4.5705306,1.11506355 4.43130705,1.11506355 4.3189953,1.1800106 L0.93923647,3.13129295 C0.77023059,3.22889295 0.55386,3.17112235 0.45626,3.00211645 C0.35866,2.8331106 0.41643059,2.61674 0.585795295,2.51914 L3.9655541,0.56785765 C4.29567175,0.37696355 4.7061659,0.37732235 5.03628355,0.56785765 L8.05757765,2.3120988 C8.3876953,2.5026341 8.59294235,2.85822825 8.59294235,3.2392988 L8.59294235,6.72814 C8.59294235,7.1095694 8.3876953,7.4648047 8.05757765,7.65534 L5.03628355,9.39994 C4.8712247,9.49502825 4.68607175,9.54275175 4.5009188,9.54275175" id="Fill-30" fill="#FEFEFE" mask="url(#mask-28)"></path>
                    </g>
                    <g id="Fill-35-Clipped" transform="translate(3.000000, 23.500000)">
                        <mask id="mask-30" fill="white">
                            <use xlink:href="#path-29"></use>
                        </mask>
                        <g id="path-7"></g>
                        <path d="M-6.71464882,3.05296175 C-6.89980176,3.05296175 -7.0849547,3.00523825 -7.25001353,2.91015 L-10.2713076,1.16555 C-10.6014253,0.9750147 -10.8066723,0.6197794 -10.8066723,0.23835 L-10.8066723,-3.2504912 C-10.8066723,-3.63156175 -10.6014253,-3.9871559 -10.2713076,-4.1776912 L-6.89154882,-6.12897355 C-6.72218412,-6.22657355 -6.50617235,-6.16880295 -6.40857235,-5.99979705 C-6.31097235,-5.83043235 -6.36874294,-5.6144206 -6.53774882,-5.5168206 L-9.91786645,-3.56553825 C-10.0298194,-3.5005912 -10.09979,-3.38002645 -10.09979,-3.2504912 L-10.09979,0.23835 C-10.09979,0.3678853 -10.0298194,0.48845 -9.91786645,0.55339705 L-6.89657235,2.29763825 C-6.78426059,2.3625853 -6.64503706,2.3625853 -6.53272529,2.29763825 L-3.51143117,0.55339705 C-3.39911941,0.48845 -3.32950765,0.3678853 -3.32950765,0.23835 L-3.32950765,-3.66457355 C-3.32950765,-3.85977355 -3.17126647,-4.0180147 -2.97606647,-4.0180147 C-2.78086647,-4.0180147 -2.62262529,-3.85977355 -2.62262529,-3.66457355 L-2.62262529,0.23835 C-2.62262529,0.6197794 -2.82787235,0.9750147 -3.15799,1.16555 L-6.17928412,2.91015 C-6.34434294,3.00523825 -6.52949588,3.05296175 -6.71464882,3.05296175" id="Fill-35" fill="#FEFEFE" mask="url(#mask-30)"></path>
                    </g>
                </g>
            </g>
        </g>
    </g>
</svg>