<?xml version="1.0" encoding="UTF-8" standalone="no"?>
<svg width="33px" height="24px" viewBox="0 0 33 24" version="1.1" xmlns="http://www.w3.org/2000/svg" xmlns:xlink="http://www.w3.org/1999/xlink">
    <g id="round-4" stroke="none" stroke-width="1" fill="none" fill-rule="evenodd">
        <g id="welcome-2" transform="translate(-830.000000, -227.000000)" fill="#FFC705">
            <g id="quote" transform="translate(449.000000, 134.000000)">
                <path d="M397.498777,46.8632812 C393.328834,48.9140728 391.243894,51.3237166 391.243894,54.0922852 C393.021247,54.2973643 394.490959,55.0236754 395.653074,56.2712402 C396.815189,57.5188051 397.396238,58.9628824 397.396238,60.6035156 C397.396238,62.3466884 396.832279,63.8164003 395.704343,65.0126953 C394.576408,66.2089904 393.157965,66.8071289 391.448972,66.8071289 C389.5349,66.8071289 387.877202,66.0295488 386.475828,64.4743652 C385.074454,62.9191817 384.373777,61.0307728 384.373777,58.809082 C384.373777,52.1440096 388.099326,46.9316594 395.550535,43.171875 L397.498777,46.8632812 Z M378.734129,46.8632812 C374.530006,48.9140728 372.427976,51.3237166 372.427976,54.0922852 C374.239509,54.2973643 375.72631,55.0236754 376.888425,56.2712402 C378.050541,57.5188051 378.63159,58.9628824 378.63159,60.6035156 C378.63159,62.3466884 378.059086,63.8164003 376.91406,65.0126953 C375.769035,66.2089904 374.342047,66.8071289 372.633054,66.8071289 C370.718982,66.8071289 369.069829,66.0295488 367.685545,64.4743652 C366.30126,62.9191817 365.609129,61.0307728 365.609129,58.809082 C365.609129,52.1440096 369.317588,46.9316594 376.734617,43.171875 L378.734129,46.8632812 Z" id="“" transform="translate(389.603269, 80.085938) rotate(-180.000000) translate(-389.603269, -80.085938) "></path>
            </g>
        </g>
    </g>
</svg>