<?xml version="1.0" encoding="UTF-8" standalone="no"?>
<svg width="32px" height="24px" viewBox="0 0 32 24" version="1.1" xmlns="http://www.w3.org/2000/svg" xmlns:xlink="http://www.w3.org/1999/xlink">
    <g id="round-4" stroke="none" stroke-width="1" fill="none" fill-rule="evenodd">
        <g id="welcome-2" transform="translate(-449.000000, -134.000000)" fill="#FFC705">
            <g id="quote" transform="translate(434.000000, 113.000000)">
                <path d="M46.9116211,24.8632812 C42.7416784,26.9140728 40.6567383,29.3237166 40.6567383,32.0922852 C42.4340909,32.2973643 43.9038028,33.0236754 45.065918,34.2712402 C46.2280332,35.5188051 46.809082,36.9628824 46.809082,38.6035156 C46.809082,40.3466884 46.2451228,41.8164003 45.1171875,43.0126953 C43.9892522,44.2089904 42.5708093,44.8071289 40.8618164,44.8071289 C38.9477443,44.8071289 37.2900461,44.0295488 35.8886719,42.4743652 C34.4872977,40.9191817 33.7866211,39.0307728 33.7866211,36.809082 C33.7866211,30.1440096 37.5121698,24.9316594 44.9633789,21.171875 L46.9116211,24.8632812 Z M28.1469727,24.8632812 C23.9428501,26.9140728 21.8408203,29.3237166 21.8408203,32.0922852 C23.6523528,32.2973643 25.1391543,33.0236754 26.3012695,34.2712402 C27.4633847,35.5188051 28.0444336,36.9628824 28.0444336,38.6035156 C28.0444336,40.3466884 27.4719296,41.8164003 26.3269043,43.0126953 C25.181879,44.2089904 23.7548914,44.8071289 22.0458984,44.8071289 C20.1318264,44.8071289 18.4826729,44.0295488 17.0983887,42.4743652 C15.7141044,40.9191817 15.0219727,39.0307728 15.0219727,36.809082 C15.0219727,30.1440096 18.7304317,24.9316594 26.1474609,21.171875 L28.1469727,24.8632812 Z" id="“"></path>
            </g>
        </g>
    </g>
</svg>