<?xml version="1.0" encoding="UTF-8" standalone="no"?>
<svg width="60px" height="60px" viewBox="0 0 60 60" version="1.1" xmlns="http://www.w3.org/2000/svg" xmlns:xlink="http://www.w3.org/1999/xlink">
    <!-- Generator: Sketch 3.8.3 (29802) - http://www.bohemiancoding.com/sketch -->
    <title>visionary</title>
    <desc>Created with Sketch.</desc>
    <defs>
        <path d="M29.5185974,59.5996233 C45.8212319,59.5996233 59.0373358,46.4150454 59.0373358,30.1512996 C59.0373358,13.8875538 45.8212319,0.702975867 29.5185974,0.702975867 C13.2159629,0.702975867 -0.000141001855,13.8875538 -0.000141001855,30.1512996 C-0.000141001855,46.4150454 13.2159629,59.5996233 29.5185974,59.5996233" id="path-1"></path>
        <path d="M1.38165258,0.33288492 C1.00091906,0.614473962 0.62721576,0.904987226 0.260853432,1.20411464 L0.260853432,19.0336606 L37.6256401,19.0336606 L37.6256401,1.20377888 C37.2594055,0.904769828 36.8858361,0.614368602 36.5052423,0.33288492 L1.38165258,0.33288492 L1.38165258,0.33288492 Z" id="path-3"></path>
    </defs>
    <g id="moneytype" stroke="none" stroke-width="1" fill="none" fill-rule="evenodd">
        <g id="visionary">
            <mask id="mask-2" fill="white">
                <use xlink:href="#path-1"></use>
            </mask>
            <use id="Fill-1" fill="#8BC8D3" xlink:href="#path-1"></use>
            <g id="Group-19" mask="url(#mask-2)">
                <g transform="translate(3.525046, 6.146731)">
                    <path d="M32.6192987,21.3214444 C32.2421187,20.4683081 31.2177403,21.2686949 30.8751058,21.7335944 C30.3667941,22.424262 30.1031206,23.354061 29.8937328,24.1748442 C29.826757,24.4371854 29.7675362,24.7023399 29.7118404,24.9681977 C28.5090946,25.3353346 27.1752171,25.0990166 26.3038256,24.2437703 C26.7550315,23.6712617 27.0419703,22.946131 27.094846,22.1316777 C27.1441967,21.3664574 26.9101336,20.195417 25.9407458,20.2305834 C24.9699481,20.2657498 24.9325826,21.7905639 25.0016735,22.4425485 C25.0785195,23.1697892 25.3527681,23.7880141 25.7581484,24.2782334 C25.4867199,24.5518278 25.1638256,24.7768926 24.7979258,24.9295147 C24.0224156,25.2530453 23.1524341,25.2361655 22.3571837,24.9717143 C22.2965529,24.6784267 22.231692,24.3865458 22.156256,24.0981815 C21.9377032,23.2562985 21.6556994,22.2828932 21.0945121,21.5992588 C20.6771466,21.0914563 19.6781484,20.5400475 19.4046048,21.4571866 C19.1451614,22.3243895 19.7105788,23.4047006 20.2400408,24.0496519 C20.6912468,24.599654 21.3088349,25.0047707 21.9764787,25.2614853 C22.6476475,28.5607947 23.3181113,31.8608075 23.9892801,35.1608202 L24.4108757,35.1608202 C23.8454583,32.3798632 23.2800408,29.5989061 22.7153284,26.8179491 C22.6201521,26.3537529 22.536961,25.8832268 22.4467199,25.4148107 C22.5743265,25.449977 22.7040482,25.4802201 22.8330649,25.5041333 C24.0858664,25.7390446 25.2336215,25.3458846 26.0225269,24.560971 C26.8910983,25.3901942 28.1911354,25.7369347 29.4855325,25.454197 C29.5306531,25.4436471 29.5750686,25.4323938 29.6201892,25.4211406 C29.5165529,25.9535595 29.4220816,26.4887918 29.3149202,27.0176941 C28.9426753,28.847049 28.5711354,30.6764039 28.1988905,32.5064621 C28.0191132,33.3912482 27.8393358,34.2760342 27.6588534,35.1608202 L28.081154,35.1608202 C28.6388163,32.4164362 29.1964787,29.6720522 29.754846,26.9276682 C29.8655325,26.381886 29.9621187,25.8276639 30.0721002,25.2776618 C30.8017848,25.0012541 31.4764787,24.520178 31.9424898,23.9103931 C32.4268312,23.276695 32.9760334,22.1295678 32.6192987,21.3214444 M19.7789647,21.8194003 C19.7549944,20.9114045 20.6552913,21.6709982 20.9034545,22.0416518 C21.2242338,22.5213212 21.4167013,23.0917198 21.5915436,23.637502 C21.6937699,23.955406 21.775551,24.2733101 21.8425269,24.599654 C21.8545121,24.6594369 21.8664972,24.7192197 21.8784824,24.7797059 C20.7173321,24.2240771 19.8135102,23.1282929 19.7789647,21.8194003 M25.498,22.8561051 C25.3280928,22.2526501 25.3118776,21.5021996 25.6051614,20.9332076 C25.7412282,20.6687565 26.0556623,20.5379376 26.3101707,20.7355726 C26.5731391,20.9409442 26.638,21.3777106 26.6718404,21.6850648 C26.7606716,22.4960014 26.5202635,23.3118613 26.0422672,23.9490761 C25.805384,23.6438319 25.6171466,23.2809149 25.498,22.8561051 M32.1913581,22.5044413 C32.0447161,23.0966431 31.7056067,23.6072589 31.277666,24.0341787 C30.9512468,24.359116 30.5747718,24.6116106 30.1736215,24.7930691 C30.2173321,24.5975441 30.2624527,24.402019 30.3132134,24.2079006 C30.5493915,23.2977948 30.8532505,22.102138 31.6597811,21.535256 C32.4444564,20.9838472 32.3041596,22.0472784 32.1913581,22.5044413" id="Fill-4" stroke="none" fill="#FEFEFE" fill-rule="evenodd"></path>
                    <path d="M32.6192987,21.3214444 C32.2421187,20.4683081 31.2177403,21.2686949 30.8751058,21.7335944 C30.3667941,22.424262 30.1031206,23.354061 29.8937328,24.1748442 C29.826757,24.4371854 29.7675362,24.7023399 29.7118404,24.9681977 C28.5090946,25.3353346 27.1752171,25.0990166 26.3038256,24.2437703 C26.7550315,23.6712617 27.0419703,22.946131 27.094846,22.1316777 C27.1441967,21.3664574 26.9101336,20.195417 25.9407458,20.2305834 C24.9699481,20.2657498 24.9325826,21.7905639 25.0016735,22.4425485 C25.0785195,23.1697892 25.3527681,23.7880141 25.7581484,24.2782334 C25.4867199,24.5518278 25.1638256,24.7768926 24.7979258,24.9295147 C24.0224156,25.2530453 23.1524341,25.2361655 22.3571837,24.9717143 C22.2965529,24.6784267 22.231692,24.3865458 22.156256,24.0981815 C21.9377032,23.2562985 21.6556994,22.2828932 21.0945121,21.5992588 C20.6771466,21.0914563 19.6781484,20.5400475 19.4046048,21.4571866 C19.1451614,22.3243895 19.7105788,23.4047006 20.2400408,24.0496519 C20.6912468,24.599654 21.3088349,25.0047707 21.9764787,25.2614853 C22.6476475,28.5607947 23.3181113,31.8608075 23.9892801,35.1608202 L24.4108757,35.1608202 C23.8454583,32.3798632 23.2800408,29.5989061 22.7153284,26.8179491 C22.6201521,26.3537529 22.536961,25.8832268 22.4467199,25.4148107 C22.5743265,25.449977 22.7040482,25.4802201 22.8330649,25.5041333 C24.0858664,25.7390446 25.2336215,25.3458846 26.0225269,24.560971 C26.8910983,25.3901942 28.1911354,25.7369347 29.4855325,25.454197 C29.5306531,25.4436471 29.5750686,25.4323938 29.6201892,25.4211406 C29.5165529,25.9535595 29.4220816,26.4887918 29.3149202,27.0176941 C28.9426753,28.847049 28.5711354,30.6764039 28.1988905,32.5064621 C28.0191132,33.3912482 27.8393358,34.2760342 27.6588534,35.1608202 L28.081154,35.1608202 C28.6388163,32.4164362 29.1964787,29.6720522 29.754846,26.9276682 C29.8655325,26.381886 29.9621187,25.8276639 30.0721002,25.2776618 C30.8017848,25.0012541 31.4764787,24.520178 31.9424898,23.9103931 C32.4268312,23.276695 32.9760334,22.1295678 32.6192987,21.3214444 L32.6192987,21.3214444 Z M19.7789647,21.8194003 C19.7549944,20.9114045 20.6552913,21.6709982 20.9034545,22.0416518 C21.2242338,22.5213212 21.4167013,23.0917198 21.5915436,23.637502 C21.6937699,23.955406 21.775551,24.2733101 21.8425269,24.599654 C21.8545121,24.6594369 21.8664972,24.7192197 21.8784824,24.7797059 C20.7173321,24.2240771 19.8135102,23.1282929 19.7789647,21.8194003 L19.7789647,21.8194003 Z M25.498,22.8561051 C25.3280928,22.2526501 25.3118776,21.5021996 25.6051614,20.9332076 C25.7412282,20.6687565 26.0556623,20.5379376 26.3101707,20.7355726 C26.5731391,20.9409442 26.638,21.3777106 26.6718404,21.6850648 C26.7606716,22.4960014 26.5202635,23.3118613 26.0422672,23.9490761 C25.805384,23.6438319 25.6171466,23.2809149 25.498,22.8561051 L25.498,22.8561051 Z M32.1913581,22.5044413 C32.0447161,23.0966431 31.7056067,23.6072589 31.277666,24.0341787 C30.9512468,24.359116 30.5747718,24.6116106 30.1736215,24.7930691 C30.2173321,24.5975441 30.2624527,24.402019 30.3132134,24.2079006 C30.5493915,23.2977948 30.8532505,22.102138 31.6597811,21.535256 C32.4444564,20.9838472 32.3041596,22.0472784 32.1913581,22.5044413 L32.1913581,22.5044413 Z" id="Stroke-6" stroke="#FEFEFE" stroke-width="1" fill="none"></path>
                    <path d="M50.463859,45.0582563 L28.4309091,45.0582563 C28.3258627,45.0582563 28.2292764,45.0005834 28.1792208,44.9084475 C28.1284601,44.8163116 28.1333952,44.7044825 28.1905009,44.6165666 L28.3279777,44.404865 C28.7615584,43.7423304 28.9998516,43.3773035 29.0097217,42.8856775 C29.0125417,42.7295388 29.1401484,42.6050498 29.2966605,42.6050498 L29.8789981,42.6050498 C30.2011874,42.6050498 30.4634508,42.3321587 30.4634508,41.9973748 L30.4634508,41.5943682 C30.4634508,41.3608634 30.3365492,41.1512718 30.1320965,41.048586 C30.0284601,40.9958364 29.9664193,40.8861173 29.9755844,40.7700683 C29.9847495,40.6540193 30.0637106,40.5555534 30.174397,40.520387 C30.4282004,40.438801 30.5981076,40.206703 30.5981076,39.9415485 L30.5981076,39.5385418 C30.5981076,39.2916738 30.4500557,39.0715323 30.2202226,38.9765831 C30.1123562,38.9329768 30.0425603,38.828181 30.0425603,38.7121319 C30.0425603,38.5960829 30.1123562,38.4919904 30.2202226,38.4476808 C30.4500557,38.3527316 30.5981076,38.1325901 30.5981076,37.8857221 L30.5981076,37.4827154 C30.5981076,37.1479315 30.325269,36.8757438 29.9896846,36.8757438 L22.0808905,36.8757438 C21.7446011,36.8757438 21.4717625,37.1479315 21.4717625,37.4827154 L21.4717625,37.8857221 C21.4717625,38.1325901 21.6205195,38.3527316 21.8503525,38.4476808 C21.9575139,38.4912871 22.0273098,38.5960829 22.0273098,38.7121319 C22.0273098,38.828181 21.9575139,38.9329768 21.8496475,38.9765831 C21.6205195,39.0715323 21.4717625,39.2916738 21.4717625,39.5385418 L21.4717625,39.9415485 C21.4717625,40.206703 21.6423748,40.438801 21.8954731,40.520387 C22.0068646,40.5555534 22.0851206,40.6540193 22.0942857,40.7700683 C22.1034508,40.8861173 22.04141,40.9958364 21.9377737,41.048586 C21.733321,41.1512718 21.6064193,41.3608634 21.6064193,41.5943682 L21.6064193,41.9973748 C21.6064193,42.3321587 21.8686827,42.6050498 22.190872,42.6050498 L22.7739147,42.6050498 C22.9304267,42.6050498 23.0580334,42.7295388 23.0608534,42.8856775 C23.0700186,43.3773035 23.3090167,43.7423304 23.7418924,44.404865 L23.8800742,44.6165666 C23.93718,44.7044825 23.94141,44.8163116 23.8913544,44.9084475 C23.8412987,45.0005834 23.7440074,45.0582563 23.638961,45.0582563 L0.113506494,45.0582563 L0.113506494,44.4857476 L23.1102041,44.4857476 C22.799295,44.0046716 22.5821521,43.6255781 22.5109462,43.1775584 L22.190872,43.1775584 C21.5521336,43.1775584 21.0325417,42.6479528 21.0325417,41.9973748 L21.0325417,41.5943682 C21.0325417,41.3088172 21.1319481,41.0422561 21.3053803,40.8333678 C21.051577,40.6146329 20.897885,40.2925089 20.897885,39.9415485 L20.897885,39.5385418 C20.897885,39.2220444 21.0233766,38.9280535 21.2362894,38.7121319 C21.0233766,38.4962104 20.897885,38.2022195 20.897885,37.8857221 L20.897885,37.4827154 C20.897885,36.8321375 21.428757,36.3025318 22.0808905,36.3025318 L29.9896846,36.3025318 C30.6418182,36.3025318 31.1719852,36.8321375 31.1719852,37.4827154 L31.1719852,37.8857221 C31.1719852,38.2022195 31.0471985,38.4962104 30.8335807,38.7121319 C31.0471985,38.9280535 31.1719852,39.2220444 31.1719852,39.5385418 L31.1719852,39.9415485 C31.1719852,40.2925089 31.0182931,40.6146329 30.7644898,40.8333678 C30.9379221,41.0422561 31.0373284,41.3088172 31.0373284,41.5943682 L31.0373284,41.9973748 C31.0373284,42.6479528 30.5177365,43.1775584 29.8789981,43.1775584 L29.5589239,43.1775584 C29.488423,43.6255781 29.2705751,44.0046716 28.959666,44.4857476 L50.463859,44.4857476 L50.463859,45.0582563 Z" id="Fill-8" stroke="none" fill="#FFFFFF" fill-rule="evenodd"></path>
                    <path d="M50.463859,45.0582563 L28.4309091,45.0582563 C28.3258627,45.0582563 28.2292764,45.0005834 28.1792208,44.9084475 C28.1284601,44.8163116 28.1333952,44.7044825 28.1905009,44.6165666 L28.3279777,44.404865 C28.7615584,43.7423304 28.9998516,43.3773035 29.0097217,42.8856775 C29.0125417,42.7295388 29.1401484,42.6050498 29.2966605,42.6050498 L29.8789981,42.6050498 C30.2011874,42.6050498 30.4634508,42.3321587 30.4634508,41.9973748 L30.4634508,41.5943682 C30.4634508,41.3608634 30.3365492,41.1512718 30.1320965,41.048586 C30.0284601,40.9958364 29.9664193,40.8861173 29.9755844,40.7700683 C29.9847495,40.6540193 30.0637106,40.5555534 30.174397,40.520387 C30.4282004,40.438801 30.5981076,40.206703 30.5981076,39.9415485 L30.5981076,39.5385418 C30.5981076,39.2916738 30.4500557,39.0715323 30.2202226,38.9765831 C30.1123562,38.9329768 30.0425603,38.828181 30.0425603,38.7121319 C30.0425603,38.5960829 30.1123562,38.4919904 30.2202226,38.4476808 C30.4500557,38.3527316 30.5981076,38.1325901 30.5981076,37.8857221 L30.5981076,37.4827154 C30.5981076,37.1479315 30.325269,36.8757438 29.9896846,36.8757438 L22.0808905,36.8757438 C21.7446011,36.8757438 21.4717625,37.1479315 21.4717625,37.4827154 L21.4717625,37.8857221 C21.4717625,38.1325901 21.6205195,38.3527316 21.8503525,38.4476808 C21.9575139,38.4912871 22.0273098,38.5960829 22.0273098,38.7121319 C22.0273098,38.828181 21.9575139,38.9329768 21.8496475,38.9765831 C21.6205195,39.0715323 21.4717625,39.2916738 21.4717625,39.5385418 L21.4717625,39.9415485 C21.4717625,40.206703 21.6423748,40.438801 21.8954731,40.520387 C22.0068646,40.5555534 22.0851206,40.6540193 22.0942857,40.7700683 C22.1034508,40.8861173 22.04141,40.9958364 21.9377737,41.048586 C21.733321,41.1512718 21.6064193,41.3608634 21.6064193,41.5943682 L21.6064193,41.9973748 C21.6064193,42.3321587 21.8686827,42.6050498 22.190872,42.6050498 L22.7739147,42.6050498 C22.9304267,42.6050498 23.0580334,42.7295388 23.0608534,42.8856775 C23.0700186,43.3773035 23.3090167,43.7423304 23.7418924,44.404865 L23.8800742,44.6165666 C23.93718,44.7044825 23.94141,44.8163116 23.8913544,44.9084475 C23.8412987,45.0005834 23.7440074,45.0582563 23.638961,45.0582563 L0.113506494,45.0582563 L0.113506494,44.4857476 L23.1102041,44.4857476 C22.799295,44.0046716 22.5821521,43.6255781 22.5109462,43.1775584 L22.190872,43.1775584 C21.5521336,43.1775584 21.0325417,42.6479528 21.0325417,41.9973748 L21.0325417,41.5943682 C21.0325417,41.3088172 21.1319481,41.0422561 21.3053803,40.8333678 C21.051577,40.6146329 20.897885,40.2925089 20.897885,39.9415485 L20.897885,39.5385418 C20.897885,39.2220444 21.0233766,38.9280535 21.2362894,38.7121319 C21.0233766,38.4962104 20.897885,38.2022195 20.897885,37.8857221 L20.897885,37.4827154 C20.897885,36.8321375 21.428757,36.3025318 22.0808905,36.3025318 L29.9896846,36.3025318 C30.6418182,36.3025318 31.1719852,36.8321375 31.1719852,37.4827154 L31.1719852,37.8857221 C31.1719852,38.2022195 31.0471985,38.4962104 30.8335807,38.7121319 C31.0471985,38.9280535 31.1719852,39.2220444 31.1719852,39.5385418 L31.1719852,39.9415485 C31.1719852,40.2925089 31.0182931,40.6146329 30.7644898,40.8333678 C30.9379221,41.0422561 31.0373284,41.3088172 31.0373284,41.5943682 L31.0373284,41.9973748 C31.0373284,42.6479528 30.5177365,43.1775584 29.8789981,43.1775584 L29.5589239,43.1775584 C29.488423,43.6255781 29.2705751,44.0046716 28.959666,44.4857476 L50.463859,44.4857476 L50.463859,45.0582563 L50.463859,45.0582563 Z" id="Stroke-10" stroke="#FEFEFE" stroke-width="1" fill="none"></path>
                    <path d="M29.9891911,35.4864609 L22.080397,35.4864609 C21.4656289,35.4864609 20.9650724,34.9870983 20.9650724,34.3730934 L20.9650724,34.1557652 C20.9911577,31.8397076 20.0126048,29.6326659 18.280397,28.0973019 L17.7156846,27.597236 L17.7516401,27.597236 C15.5879666,25.4218439 14.3598404,22.4706816 14.3598404,19.3908104 C14.3598404,12.9687267 19.5973544,7.74370645 26.0347941,7.74370645 C32.4722338,7.74370645 37.7097477,12.9687267 37.7097477,19.3908104 C37.7097477,22.4706816 36.4823265,25.4218439 34.3179481,27.597236 L34.3531985,27.597236 L33.7898961,28.0973019 C32.0569833,29.6326659 31.0784304,31.8397076 31.1045158,34.1522486 L31.1045158,34.3730934 C31.1045158,34.9870983 30.6039592,35.4864609 29.9891911,35.4864609 L29.9891911,35.4864609 Z M19.1806939,28.1697446 C20.711974,29.776848 21.5643302,31.921997 21.5389499,34.1585785 L21.5389499,34.3730934 C21.5389499,34.6713043 21.7821781,34.9139523 22.080397,34.9139523 L29.9891911,34.9139523 C30.28741,34.9139523 30.5306382,34.6713043 30.5306382,34.3730934 L30.5306382,34.1557652 C30.5052579,31.9212936 31.3576141,29.7761447 32.8895993,28.1697446 L32.8444787,28.1697446 L33.4070761,27.6696787 C35.7766122,25.5681361 37.1358701,22.5501576 37.1358701,19.3908104 C37.1358701,13.2838174 32.1556846,8.31621506 26.0347941,8.31621506 C19.9139035,8.31621506 14.934423,13.2838174 14.934423,19.3908104 C14.934423,22.5501576 16.2929759,25.5681361 18.6625121,27.6696787 L19.2265195,28.1697446 L19.1806939,28.1697446 Z" id="Fill-12" stroke="none" fill="#FFFFFF" fill-rule="evenodd"></path>
                    <path d="M29.9891911,35.4864609 L22.080397,35.4864609 C21.4656289,35.4864609 20.9650724,34.9870983 20.9650724,34.3730934 L20.9650724,34.1557652 C20.9911577,31.8397076 20.0126048,29.6326659 18.280397,28.0973019 L17.7156846,27.597236 L17.7516401,27.597236 C15.5879666,25.4218439 14.3598404,22.4706816 14.3598404,19.3908104 C14.3598404,12.9687267 19.5973544,7.74370645 26.0347941,7.74370645 C32.4722338,7.74370645 37.7097477,12.9687267 37.7097477,19.3908104 C37.7097477,22.4706816 36.4823265,25.4218439 34.3179481,27.597236 L34.3531985,27.597236 L33.7898961,28.0973019 C32.0569833,29.6326659 31.0784304,31.8397076 31.1045158,34.1522486 L31.1045158,34.3730934 C31.1045158,34.9870983 30.6039592,35.4864609 29.9891911,35.4864609 L29.9891911,35.4864609 Z M19.1806939,28.1697446 C20.711974,29.776848 21.5643302,31.921997 21.5389499,34.1585785 L21.5389499,34.3730934 C21.5389499,34.6713043 21.7821781,34.9139523 22.080397,34.9139523 L29.9891911,34.9139523 C30.28741,34.9139523 30.5306382,34.6713043 30.5306382,34.3730934 L30.5306382,34.1557652 C30.5052579,31.9212936 31.3576141,29.7761447 32.8895993,28.1697446 L32.8444787,28.1697446 L33.4070761,27.6696787 C35.7766122,25.5681361 37.1358701,22.5501576 37.1358701,19.3908104 C37.1358701,13.2838174 32.1556846,8.31621506 26.0347941,8.31621506 C19.9139035,8.31621506 14.934423,13.2838174 14.934423,19.3908104 C14.934423,22.5501576 16.2929759,25.5681361 18.6625121,27.6696787 L19.2265195,28.1697446 L19.1806939,28.1697446 L19.1806939,28.1697446 Z" id="Stroke-14" stroke="#FEFEFE" stroke-width="1" fill="none"></path>
                    <g id="Group-18" stroke="none" stroke-width="1" fill="none" fill-rule="evenodd" transform="translate(7.050093, 0.000000)">
                        <mask id="mask-4" fill="white">
                            <use xlink:href="#path-3"></use>
                        </mask>
                        <g id="Clip-17"></g>
                        <path d="M33.3969944,19.0336606 L33.3772542,18.2445271 L37.6058998,18.1376214 L37.6256401,18.9267548 L33.3969944,19.0336606 Z M4.48949907,19.0336606 L0.260853432,18.9267548 L0.281298701,18.1376214 L4.50994434,18.2445271 L4.48949907,19.0336606 Z M32.9309833,15.3411911 L32.7152505,14.5823007 L36.784564,13.4295469 L37.0002968,14.1884373 L32.9309833,15.3411911 Z M4.95621521,15.3411911 L0.88690167,14.1884373 L1.10263451,13.4295469 L5.17194805,14.5823007 L4.95621521,15.3411911 Z M31.5223748,11.8829296 L31.1275696,11.1985919 L34.7950278,9.09564263 L35.189128,9.77927699 L31.5223748,11.8829296 Z M6.36482375,11.8829296 L2.6980705,9.77927699 L3.0928757,9.09564263 L6.75962894,11.1985919 L6.36482375,11.8829296 Z M29.3424861,8.95638377 L28.7693135,8.41130494 L31.688757,5.3574568 L32.2612245,5.90183231 L29.3424861,8.95638377 Z M8.54400742,8.95638377 L5.62526902,5.90183231 L6.19844156,5.3574568 L9.11717996,8.41130494 L8.54400742,8.95638377 Z M26.4004824,6.62836965 L25.7152134,6.23450623 L27.8238961,2.57649974 L28.5091651,2.97036316 L26.4004824,6.62836965 Z M11.4867161,6.62836965 L9.3787384,2.97036316 L10.0640074,2.57649974 L12.1726902,6.23450623 L11.4867161,6.62836965 Z M22.9713173,5.13379864 L22.2106122,4.91858042 L23.3661224,0.858973913 L24.1268275,1.07419214 L22.9713173,5.13379864 Z M14.9158813,5.13379864 L13.7603711,1.07419214 L14.5210761,0.858973913 L15.6765863,4.91858042 L14.9158813,5.13379864 Z M19.2855288,4.57113662 L18.4945083,4.55144345 L18.6016698,0.33288492 L19.3926902,0.352578091 L19.2855288,4.57113662 Z" id="Fill-16" fill="#FEFEFE" mask="url(#mask-4)"></path>
                    </g>
                </g>
            </g>
        </g>
    </g>
</svg>