<?xml version="1.0" encoding="UTF-8"?>
<svg width="30px" height="30px" viewBox="0 0 30 30" version="1.1" xmlns="http://www.w3.org/2000/svg" xmlns:xlink="http://www.w3.org/1999/xlink">
    <!-- Generator: Sketch 39.1 (31720) - http://www.bohemiancoding.com/sketch -->
    <title>visionary</title>
    <desc>Created with Sketch.</desc>
    <defs>
        <path d="M14.7592987,29.7998116 C22.910616,29.7998116 29.5186679,23.2075227 29.5186679,15.0756498 C29.5186679,6.9437769 22.910616,0.351487934 14.7592987,0.351487934 C6.60798145,0.351487934 -7.05009275e-05,6.9437769 -7.05009275e-05,15.0756498 C-7.05009275e-05,23.2075227 6.60798145,29.7998116 14.7592987,29.7998116" id="path-1"></path>
        <path d="M0.69082629,0.16644246 C0.50045953,0.307236981 0.31360788,0.452493613 0.130426716,0.60205732 L0.130426716,9.5168303 L18.81282,9.5168303 L18.81282,0.60188944 C18.6297027,0.452384914 18.442918,0.307184301 18.2526211,0.16644246 L0.69082629,0.16644246 L0.69082629,0.16644246 L0.69082629,0.16644246 Z" id="path-3"></path>
    </defs>
    <g id="Page-1" stroke="none" stroke-width="1" fill="none" fill-rule="evenodd">
        <g id="visionary">
            <g id="moneytype">
                <g id="visionary">
                    <g id="Fill-1" fill="#8BC8D3">
                        <path d="M14.7592987,29.7998116 C22.910616,29.7998116 29.5186679,23.2075227 29.5186679,15.0756498 C29.5186679,6.9437769 22.910616,0.351487934 14.7592987,0.351487934 C6.60798145,0.351487934 -7.05009275e-05,6.9437769 -7.05009275e-05,15.0756498 C-7.05009275e-05,23.2075227 6.60798145,29.7998116 14.7592987,29.7998116" id="path-1"></path>
                    </g>
                    <g id="Group-19-Clipped">
                        <mask id="mask-2" fill="white">
                            <use xlink:href="#path-1"></use>
                        </mask>
                        <g id="path-1"></g>
                        <g id="Group-19" mask="url(#mask-2)">
                            <g transform="translate(1.500000, 3.000000)" id="Group">
                                <g transform="translate(0.262523, 0.073365)">
                                    <path d="M16.3096494,10.6607222 C16.1210593,10.2341541 15.6088701,10.6343474 15.4375529,10.8667972 C15.183397,11.212131 15.0515603,11.6770305 14.9468664,12.0874221 C14.9133785,12.2185927 14.8837681,12.3511699 14.8559202,12.4840989 C14.2545473,12.6676673 13.5876085,12.5495083 13.1519128,12.1218852 C13.3775158,11.8356308 13.5209851,11.4730655 13.547423,11.0658389 C13.5720983,10.6832287 13.4550668,10.0977085 12.9703729,10.1152917 C12.484974,10.1328749 12.4662913,10.8952819 12.5008367,11.2212743 C12.5392597,11.5848946 12.676384,11.8940071 12.8790742,12.1391167 C12.7433599,12.2759139 12.5819128,12.3884463 12.3989629,12.4647573 C12.0112078,12.6265227 11.5762171,12.6180827 11.1785919,12.4858571 C11.1482764,12.3392133 11.115846,12.1932729 11.078128,12.0490907 C10.9688516,11.6281492 10.8278497,11.1414466 10.547256,10.7996294 C10.3385733,10.5457282 9.8390742,10.2700238 9.7023024,10.7285933 C9.5725807,11.1621947 9.8552894,11.7023503 10.1200204,12.024826 C10.3456234,12.299827 10.6544175,12.5023854 10.9882394,12.6307427 C11.3238238,14.2803973 11.6590556,15.9304037 11.99464,17.5804101 L12.2054378,17.5804101 C11.9227291,16.1899316 11.6400204,14.7994531 11.3576642,13.4089745 C11.310076,13.1768764 11.2684805,12.9416134 11.22336,12.7074054 C11.2871633,12.7249885 11.3520241,12.7401101 11.4165325,12.7520666 C12.0429332,12.8695223 12.6168107,12.6729423 13.0112634,12.2804855 C13.4455491,12.6950971 14.0955677,12.8684673 14.7427662,12.7270985 C14.7653265,12.7218235 14.7875343,12.7161969 14.8100946,12.7105703 C14.7582765,12.9767798 14.7110408,13.2443959 14.6574601,13.508847 C14.4713376,14.4235245 14.2855677,15.338202 14.0994452,16.2532311 C14.0095566,16.6956241 13.9196679,17.1380171 13.8294267,17.5804101 L14.040577,17.5804101 C14.3194081,16.2082181 14.5982394,14.8360261 14.877423,13.4638341 C14.9327663,13.190943 14.9810593,12.913832 15.0360501,12.6388309 C15.4008924,12.5006271 15.7382394,12.260089 15.9712449,11.9551966 C16.2134156,11.6383475 16.4880167,11.0647839 16.3096494,10.6607222 M9.88948235,10.9097002 C9.8774972,10.4557022 10.3276456,10.8354991 10.4517272,11.0208259 C10.6121169,11.2606606 10.7083506,11.5458599 10.7957718,11.818751 C10.8468849,11.977703 10.8877755,12.136655 10.9212635,12.299827 C10.9272561,12.3297184 10.9332486,12.3596099 10.9392412,12.3898529 C10.3586661,12.1120385 9.9067551,11.5641465 9.88948235,10.9097002 M12.749,11.4280526 C12.6640464,11.126325 12.6559388,10.7510998 12.8025807,10.4666038 C12.8706141,10.3343783 13.0278312,10.2689688 13.1550854,10.3677863 C13.2865695,10.4704721 13.319,10.6888553 13.3359202,10.8425324 C13.3803358,11.2480007 13.2601317,11.6559306 13.0211336,11.974538 C12.902692,11.8219159 12.8085733,11.6404574 12.749,11.4280526 M16.0956791,11.2522206 C16.0223581,11.5483216 15.8528034,11.8036295 15.638833,12.0170893 C15.4756234,12.179558 15.2873859,12.3058053 15.0868107,12.3965346 C15.1086661,12.2987721 15.1312264,12.2010095 15.1566067,12.1039503 C15.2746957,11.6488974 15.4266253,11.051069 15.8298906,10.767628 C16.2222282,10.4919236 16.1520798,11.0236392 16.0956791,11.2522206" id="Fill-4" fill="#FEFEFE"></path>
                                    <path d="M16.3096494,10.6607222 C16.1210593,10.2341541 15.6088701,10.6343474 15.4375529,10.8667972 C15.183397,11.212131 15.0515603,11.6770305 14.9468664,12.0874221 C14.9133785,12.2185927 14.8837681,12.3511699 14.8559202,12.4840989 C14.2545473,12.6676673 13.5876085,12.5495083 13.1519128,12.1218852 C13.3775158,11.8356308 13.5209851,11.4730655 13.547423,11.0658389 C13.5720983,10.6832287 13.4550668,10.0977085 12.9703729,10.1152917 C12.484974,10.1328749 12.4662913,10.8952819 12.5008367,11.2212743 C12.5392597,11.5848946 12.676384,11.8940071 12.8790742,12.1391167 C12.7433599,12.2759139 12.5819128,12.3884463 12.3989629,12.4647573 C12.0112078,12.6265227 11.5762171,12.6180827 11.1785919,12.4858571 C11.1482764,12.3392133 11.115846,12.1932729 11.078128,12.0490907 C10.9688516,11.6281492 10.8278497,11.1414466 10.547256,10.7996294 C10.3385733,10.5457282 9.8390742,10.2700238 9.7023024,10.7285933 C9.5725807,11.1621947 9.8552894,11.7023503 10.1200204,12.024826 C10.3456234,12.299827 10.6544175,12.5023854 10.9882394,12.6307427 C11.3238238,14.2803973 11.6590556,15.9304037 11.99464,17.5804101 L12.2054378,17.5804101 C11.9227291,16.1899316 11.6400204,14.7994531 11.3576642,13.4089745 C11.310076,13.1768764 11.2684805,12.9416134 11.22336,12.7074054 C11.2871633,12.7249885 11.3520241,12.7401101 11.4165325,12.7520666 C12.0429332,12.8695223 12.6168107,12.6729423 13.0112634,12.2804855 C13.4455491,12.6950971 14.0955677,12.8684673 14.7427662,12.7270985 C14.7653265,12.7218235 14.7875343,12.7161969 14.8100946,12.7105703 C14.7582765,12.9767798 14.7110408,13.2443959 14.6574601,13.508847 C14.4713376,14.4235245 14.2855677,15.338202 14.0994452,16.2532311 C14.0095566,16.6956241 13.9196679,17.1380171 13.8294267,17.5804101 L14.040577,17.5804101 C14.3194081,16.2082181 14.5982394,14.8360261 14.877423,13.4638341 C14.9327663,13.190943 14.9810593,12.913832 15.0360501,12.6388309 C15.4008924,12.5006271 15.7382394,12.260089 15.9712449,11.9551966 C16.2134156,11.6383475 16.4880167,11.0647839 16.3096494,10.6607222 L16.3096494,10.6607222 L16.3096494,10.6607222 Z M9.88948235,10.9097002 C9.8774972,10.4557022 10.3276456,10.8354991 10.4517272,11.0208259 C10.6121169,11.2606606 10.7083506,11.5458599 10.7957718,11.818751 C10.8468849,11.977703 10.8877755,12.136655 10.9212635,12.299827 C10.9272561,12.3297184 10.9332486,12.3596099 10.9392412,12.3898529 C10.3586661,12.1120385 9.9067551,11.5641465 9.88948235,10.9097002 L9.88948235,10.9097002 L9.88948235,10.9097002 Z M12.749,11.4280526 C12.6640464,11.126325 12.6559388,10.7510998 12.8025807,10.4666038 C12.8706141,10.3343783 13.0278312,10.2689688 13.1550854,10.3677863 C13.2865695,10.4704721 13.319,10.6888553 13.3359202,10.8425324 C13.3803358,11.2480007 13.2601317,11.6559306 13.0211336,11.974538 C12.902692,11.8219159 12.8085733,11.6404574 12.749,11.4280526 L12.749,11.4280526 L12.749,11.4280526 Z M16.0956791,11.2522206 C16.0223581,11.5483216 15.8528034,11.8036295 15.638833,12.0170893 C15.4756234,12.179558 15.2873859,12.3058053 15.0868107,12.3965346 C15.1086661,12.2987721 15.1312264,12.2010095 15.1566067,12.1039503 C15.2746957,11.6488974 15.4266253,11.051069 15.8298906,10.767628 C16.2222282,10.4919236 16.1520798,11.0236392 16.0956791,11.2522206 L16.0956791,11.2522206 L16.0956791,11.2522206 Z" id="Stroke-6" stroke="#FEFEFE"></path>
                                    <path d="M25.2319295,22.5291281 L14.2154546,22.5291281 C14.1629313,22.5291281 14.1146382,22.5002917 14.0896104,22.4542238 C14.0642301,22.4081558 14.0666976,22.3522412 14.0952505,22.3082833 L14.1639889,22.2024325 C14.3807792,21.8711652 14.4999258,21.6886517 14.5048609,21.4428387 C14.5062708,21.3647694 14.5700742,21.3025249 14.6483303,21.3025249 L14.9394991,21.3025249 C15.1005937,21.3025249 15.2317254,21.1660794 15.2317254,20.9986874 L15.2317254,20.7971841 C15.2317254,20.6804317 15.1682746,20.5756359 15.0660483,20.524293 C15.0142301,20.4979182 14.9832096,20.4430587 14.9877922,20.3850341 C14.9923747,20.3270097 15.0318553,20.2777767 15.0871985,20.2601935 C15.2141002,20.2194005 15.2990538,20.1033515 15.2990538,19.9707743 L15.2990538,19.7692709 C15.2990538,19.6458369 15.2250279,19.5357662 15.1101113,19.4882915 C15.0561781,19.4664884 15.0212802,19.4140905 15.0212802,19.356066 C15.0212802,19.2980414 15.0561781,19.2459952 15.1101113,19.2238404 C15.2250279,19.1763658 15.2990538,19.0662951 15.2990538,18.9428611 L15.2990538,18.7413577 C15.2990538,18.5739657 15.1626345,18.4378719 14.9948423,18.4378719 L11.0404452,18.4378719 C10.8723006,18.4378719 10.7358813,18.5739657 10.7358813,18.7413577 L10.7358813,18.9428611 C10.7358813,19.0662951 10.8102598,19.1763658 10.9251762,19.2238404 C10.9787569,19.2456436 11.0136549,19.2980414 11.0136549,19.356066 C11.0136549,19.4140905 10.9787569,19.4664884 10.9248237,19.4882915 C10.8102598,19.5357662 10.7358813,19.6458369 10.7358813,19.7692709 L10.7358813,19.9707743 C10.7358813,20.1033515 10.8211874,20.2194005 10.9477366,20.2601935 C11.0034323,20.2777767 11.0425603,20.3270097 11.0471429,20.3850341 C11.0517254,20.4430587 11.020705,20.4979182 10.9688869,20.524293 C10.8666605,20.5756359 10.8032096,20.6804317 10.8032096,20.7971841 L10.8032096,20.9986874 C10.8032096,21.1660794 10.9343414,21.3025249 11.095436,21.3025249 L11.3869573,21.3025249 C11.4652134,21.3025249 11.5290167,21.3647694 11.5304267,21.4428387 C11.5350093,21.6886517 11.6545084,21.8711652 11.8709462,22.2024325 L11.9400371,22.3082833 C11.96859,22.3522412 11.970705,22.4081558 11.9456772,22.4542238 C11.9206493,22.5002917 11.8720037,22.5291281 11.8194805,22.5291281 L0.056753247,22.5291281 L0.056753247,22.2428738 L11.5551021,22.2428738 C11.3996475,22.0023358 11.291076,21.812789 11.2554731,21.5887792 L11.095436,21.5887792 C10.7760668,21.5887792 10.5162708,21.3239764 10.5162708,20.9986874 L10.5162708,20.7971841 C10.5162708,20.6544086 10.565974,20.5211281 10.6526901,20.4166839 C10.5257885,20.3073164 10.4489425,20.1462545 10.4489425,19.9707743 L10.4489425,19.7692709 C10.4489425,19.6110222 10.5116883,19.4640267 10.6181447,19.356066 C10.5116883,19.2481052 10.4489425,19.1011097 10.4489425,18.9428611 L10.4489425,18.7413577 C10.4489425,18.4160688 10.7143785,18.1512659 11.0404452,18.1512659 L14.9948423,18.1512659 C15.3209091,18.1512659 15.5859926,18.4160688 15.5859926,18.7413577 L15.5859926,18.9428611 C15.5859926,19.1011097 15.5235992,19.2481052 15.4167903,19.356066 C15.5235992,19.4640267 15.5859926,19.6110222 15.5859926,19.7692709 L15.5859926,19.9707743 C15.5859926,20.1462545 15.5091466,20.3073164 15.3822449,20.4166839 C15.468961,20.5211281 15.5186642,20.6544086 15.5186642,20.7971841 L15.5186642,20.9986874 C15.5186642,21.3239764 15.2588682,21.5887792 14.9394991,21.5887792 L14.7794619,21.5887792 C14.7442115,21.812789 14.6352876,22.0023358 14.479833,22.2428738 L25.2319295,22.2428738 L25.2319295,22.5291281 L25.2319295,22.5291281 Z" id="Fill-8" fill="#FFFFFF"></path>
                                    <path d="M25.2319295,22.5291281 L14.2154546,22.5291281 C14.1629313,22.5291281 14.1146382,22.5002917 14.0896104,22.4542238 C14.0642301,22.4081558 14.0666976,22.3522412 14.0952505,22.3082833 L14.1639889,22.2024325 C14.3807792,21.8711652 14.4999258,21.6886517 14.5048609,21.4428387 C14.5062708,21.3647694 14.5700742,21.3025249 14.6483303,21.3025249 L14.9394991,21.3025249 C15.1005937,21.3025249 15.2317254,21.1660794 15.2317254,20.9986874 L15.2317254,20.7971841 C15.2317254,20.6804317 15.1682746,20.5756359 15.0660483,20.524293 C15.0142301,20.4979182 14.9832096,20.4430587 14.9877922,20.3850341 C14.9923747,20.3270097 15.0318553,20.2777767 15.0871985,20.2601935 C15.2141002,20.2194005 15.2990538,20.1033515 15.2990538,19.9707743 L15.2990538,19.7692709 C15.2990538,19.6458369 15.2250279,19.5357662 15.1101113,19.4882915 C15.0561781,19.4664884 15.0212802,19.4140905 15.0212802,19.356066 C15.0212802,19.2980414 15.0561781,19.2459952 15.1101113,19.2238404 C15.2250279,19.1763658 15.2990538,19.0662951 15.2990538,18.9428611 L15.2990538,18.7413577 C15.2990538,18.5739657 15.1626345,18.4378719 14.9948423,18.4378719 L11.0404452,18.4378719 C10.8723006,18.4378719 10.7358813,18.5739657 10.7358813,18.7413577 L10.7358813,18.9428611 C10.7358813,19.0662951 10.8102598,19.1763658 10.9251762,19.2238404 C10.9787569,19.2456436 11.0136549,19.2980414 11.0136549,19.356066 C11.0136549,19.4140905 10.9787569,19.4664884 10.9248237,19.4882915 C10.8102598,19.5357662 10.7358813,19.6458369 10.7358813,19.7692709 L10.7358813,19.9707743 C10.7358813,20.1033515 10.8211874,20.2194005 10.9477366,20.2601935 C11.0034323,20.2777767 11.0425603,20.3270097 11.0471429,20.3850341 C11.0517254,20.4430587 11.020705,20.4979182 10.9688869,20.524293 C10.8666605,20.5756359 10.8032096,20.6804317 10.8032096,20.7971841 L10.8032096,20.9986874 C10.8032096,21.1660794 10.9343414,21.3025249 11.095436,21.3025249 L11.3869573,21.3025249 C11.4652134,21.3025249 11.5290167,21.3647694 11.5304267,21.4428387 C11.5350093,21.6886517 11.6545084,21.8711652 11.8709462,22.2024325 L11.9400371,22.3082833 C11.96859,22.3522412 11.970705,22.4081558 11.9456772,22.4542238 C11.9206493,22.5002917 11.8720037,22.5291281 11.8194805,22.5291281 L0.056753247,22.5291281 L0.056753247,22.2428738 L11.5551021,22.2428738 C11.3996475,22.0023358 11.291076,21.812789 11.2554731,21.5887792 L11.095436,21.5887792 C10.7760668,21.5887792 10.5162708,21.3239764 10.5162708,20.9986874 L10.5162708,20.7971841 C10.5162708,20.6544086 10.565974,20.5211281 10.6526901,20.4166839 C10.5257885,20.3073164 10.4489425,20.1462545 10.4489425,19.9707743 L10.4489425,19.7692709 C10.4489425,19.6110222 10.5116883,19.4640267 10.6181447,19.356066 C10.5116883,19.2481052 10.4489425,19.1011097 10.4489425,18.9428611 L10.4489425,18.7413577 C10.4489425,18.4160688 10.7143785,18.1512659 11.0404452,18.1512659 L14.9948423,18.1512659 C15.3209091,18.1512659 15.5859926,18.4160688 15.5859926,18.7413577 L15.5859926,18.9428611 C15.5859926,19.1011097 15.5235992,19.2481052 15.4167903,19.356066 C15.5235992,19.4640267 15.5859926,19.6110222 15.5859926,19.7692709 L15.5859926,19.9707743 C15.5859926,20.1462545 15.5091466,20.3073164 15.3822449,20.4166839 C15.468961,20.5211281 15.5186642,20.6544086 15.5186642,20.7971841 L15.5186642,20.9986874 C15.5186642,21.3239764 15.2588682,21.5887792 14.9394991,21.5887792 L14.7794619,21.5887792 C14.7442115,21.812789 14.6352876,22.0023358 14.479833,22.2428738 L25.2319295,22.2428738 L25.2319295,22.5291281 L25.2319295,22.5291281 L25.2319295,22.5291281 Z" id="Stroke-10" stroke="#FEFEFE"></path>
                                    <path d="M14.9945955,17.7432304 L11.0401985,17.7432304 C10.7328144,17.7432304 10.4825362,17.4935491 10.4825362,17.1865467 L10.4825362,17.0778826 C10.4955788,15.9198538 10.0063024,14.8163329 9.1401985,14.048651 L8.8578423,13.798618 L8.87582005,13.798618 C7.7939833,12.7109219 7.1799202,11.2353408 7.1799202,9.6954052 C7.1799202,6.48436335 9.7986772,3.87185323 13.017397,3.87185323 C16.2361169,3.87185323 18.8548739,6.48436335 18.8548739,9.6954052 C18.8548739,11.2353408 18.2411632,12.7109219 17.1589741,13.798618 L17.1765992,13.798618 L16.894948,14.048651 C16.0284916,14.8163329 15.5392152,15.9198538 15.5522579,17.0761243 L15.5522579,17.1865467 C15.5522579,17.4935491 15.3019796,17.7432304 14.9945955,17.7432304 L14.9945955,17.7432304 L14.9945955,17.7432304 Z M9.59034695,14.0848723 C10.355987,14.888424 10.7821651,15.9609985 10.7694749,17.0792892 L10.7694749,17.1865467 C10.7694749,17.3356522 10.891089,17.4569761 11.0401985,17.4569761 L14.9945955,17.4569761 C15.143705,17.4569761 15.2653191,17.3356522 15.2653191,17.1865467 L15.2653191,17.0778826 C15.252629,15.9606468 15.678807,14.8880723 16.4447997,14.0848723 L16.4222393,14.0848723 L16.703538,13.8348393 C17.8883061,12.7840681 18.567935,11.2750788 18.567935,9.6954052 C18.567935,6.6419087 16.0778423,4.15810753 13.017397,4.15810753 C9.95695175,4.15810753 7.4672115,6.6419087 7.4672115,9.6954052 C7.4672115,11.2750788 8.14648795,12.7840681 9.33125605,13.8348393 L9.61325975,14.0848723 L9.59034695,14.0848723 L9.59034695,14.0848723 Z" id="Fill-12" fill="#FFFFFF"></path>
                                    <path d="M14.9945955,17.7432304 L11.0401985,17.7432304 C10.7328144,17.7432304 10.4825362,17.4935491 10.4825362,17.1865467 L10.4825362,17.0778826 C10.4955788,15.9198538 10.0063024,14.8163329 9.1401985,14.048651 L8.8578423,13.798618 L8.87582005,13.798618 C7.7939833,12.7109219 7.1799202,11.2353408 7.1799202,9.6954052 C7.1799202,6.48436335 9.7986772,3.87185323 13.017397,3.87185323 C16.2361169,3.87185323 18.8548739,6.48436335 18.8548739,9.6954052 C18.8548739,11.2353408 18.2411632,12.7109219 17.1589741,13.798618 L17.1765992,13.798618 L16.894948,14.048651 C16.0284916,14.8163329 15.5392152,15.9198538 15.5522579,17.0761243 L15.5522579,17.1865467 C15.5522579,17.4935491 15.3019796,17.7432304 14.9945955,17.7432304 L14.9945955,17.7432304 L14.9945955,17.7432304 Z M9.59034695,14.0848723 C10.355987,14.888424 10.7821651,15.9609985 10.7694749,17.0792892 L10.7694749,17.1865467 C10.7694749,17.3356522 10.891089,17.4569761 11.0401985,17.4569761 L14.9945955,17.4569761 C15.143705,17.4569761 15.2653191,17.3356522 15.2653191,17.1865467 L15.2653191,17.0778826 C15.252629,15.9606468 15.678807,14.8880723 16.4447997,14.0848723 L16.4222393,14.0848723 L16.703538,13.8348393 C17.8883061,12.7840681 18.567935,11.2750788 18.567935,9.6954052 C18.567935,6.6419087 16.0778423,4.15810753 13.017397,4.15810753 C9.95695175,4.15810753 7.4672115,6.6419087 7.4672115,9.6954052 C7.4672115,11.2750788 8.14648795,12.7840681 9.33125605,13.8348393 L9.61325975,14.0848723 L9.59034695,14.0848723 L9.59034695,14.0848723 L9.59034695,14.0848723 Z" id="Stroke-14" stroke="#FEFEFE"></path>
                                    <g id="Group-18" transform="translate(3.525047, 0.000000)">
                                        <g id="Fill-16-Clipped">
                                            <mask id="mask-4" fill="white">
                                                <use xlink:href="#path-3"></use>
                                            </mask>
                                            <g id="path-3"></g>
                                            <path d="M16.6984972,9.5168303 L16.6886271,9.12226355 L18.8029499,9.0688107 L18.81282,9.4633774 L16.6984972,9.5168303 L16.6984972,9.5168303 Z M2.24474953,9.5168303 L0.130426716,9.4633774 L0.140649351,9.0688107 L2.25497217,9.12226355 L2.24474953,9.5168303 L2.24474953,9.5168303 Z M16.4654916,7.67059555 L16.3576252,7.29115035 L18.392282,6.71477345 L18.5001484,7.09421865 L16.4654916,7.67059555 L16.4654916,7.67059555 Z M2.4781076,7.67059555 L0.443450835,7.09421865 L0.551317255,6.71477345 L2.58597402,7.29115035 L2.4781076,7.67059555 L2.4781076,7.67059555 Z M15.7611874,5.9414648 L15.5637848,5.59929595 L17.3975139,4.54782132 L17.594564,4.8896385 L15.7611874,5.9414648 L15.7611874,5.9414648 Z M3.18241187,5.9414648 L1.34903525,4.8896385 L1.54643785,4.54782132 L3.37981447,5.59929595 L3.18241187,5.9414648 L3.18241187,5.9414648 Z M14.671243,4.47819189 L14.3846567,4.20565247 L15.8443785,2.6787284 L16.1306122,2.95091616 L14.671243,4.47819189 L14.671243,4.47819189 Z M4.27200371,4.47819189 L2.81263451,2.95091616 L3.09922078,2.6787284 L4.55858998,4.20565247 L4.27200371,4.47819189 L4.27200371,4.47819189 Z M5.74335805,3.31418483 L4.6893692,1.48518158 L5.0320037,1.28824987 L6.0863451,3.11725312 L5.74335805,3.31418483 L5.74335805,3.31418483 Z M13.2002412,3.31418483 L12.8576067,3.11725312 L13.911948,1.28824987 L14.2545825,1.48518158 L13.2002412,3.31418483 L13.2002412,3.31418483 Z M11.4856587,2.56689932 L11.1053061,2.45929021 L11.6830612,0.429486956 L12.0634138,0.53709607 L11.4856587,2.56689932 L11.4856587,2.56689932 Z M7.45794065,2.56689932 L6.88018555,0.53709607 L7.26053805,0.429486956 L7.83829315,2.45929021 L7.45794065,2.56689932 L7.45794065,2.56689932 Z M9.6427644,2.28556831 L9.24725415,2.27572173 L9.3008349,0.16644246 L9.6963451,0.176289045 L9.6427644,2.28556831 L9.6427644,2.28556831 Z" id="Fill-16" fill="#FEFEFE" mask="url(#mask-4)"></path>
                                        </g>
                                    </g>
                                </g>
                            </g>
                        </g>
                    </g>
                </g>
            </g>
        </g>
    </g>
</svg>