<?xml version="1.0" standalone="no"?>
<!DOCTYPE svg PUBLIC "-//W3C//DTD SVG 20010904//EN"
 "http://www.w3.org/TR/2001/REC-SVG-20010904/DTD/svg10.dtd">
<svg version="1.0" xmlns="http://www.w3.org/2000/svg"
 width="1638.000000pt" height="1638.000000pt" viewBox="0 0 1638.000000 1638.000000"
 preserveAspectRatio="xMidYMid meet">
<metadata>
Created by potrace 1.11, written by Peter Selinger 2001-2013
</metadata>
<g transform="translate(0.000000,1638.000000) scale(0.100000,-0.100000)"
fill="#000000" stroke="none">
<path d="M7497 15064 c-1 -1 -20 -5 -42 -8 -137 -21 -408 -97 -502 -141 -17
-8 -34 -15 -37 -15 -18 0 -247 -110 -356 -171 -525 -293 -901 -649 -1217
-1154 -105 -168 -288 -577 -328 -735 -3 -8 -18 -67 -35 -130 -33 -126 -76
-326 -85 -405 -4 -27 -8 -57 -10 -65 -2 -8 -7 -44 -10 -80 -4 -36 -8 -81 -10
-100 -13 -141 -17 -232 -17 -420 1 -118 3 -249 6 -290 7 -101 17 -218 21 -255
13 -130 16 -149 41 -285 2 -14 7 -38 11 -55 4 -16 8 -34 9 -40 15 -81 97 -325
154 -460 32 -77 133 -288 160 -335 274 -475 596 -829 1010 -1109 266 -181 530
-309 857 -417 73 -24 142 -46 155 -48 13 -3 61 -15 108 -26 115 -29 106 -27
273 -57 l147 -27 0 -3533 0 -3533 405 0 405 0 1 48 c0 26 0 1614 0 3529 1
1916 4 3485 7 3487 4 2 30 6 57 10 54 6 67 9 190 31 253 47 530 126 760 217
131 52 362 163 449 216 37 23 70 42 72 42 12 0 254 169 345 240 134 106 393
367 490 495 85 111 210 300 255 384 149 279 238 508 315 811 36 141 47 196 64
315 3 22 8 45 10 52 2 6 7 38 10 70 4 32 8 69 11 83 2 14 6 59 10 100 3 41 7
95 9 120 5 61 5 473 0 535 -7 91 -16 194 -21 227 -2 18 -6 53 -9 78 -17 172
-101 538 -172 750 -73 219 -194 495 -281 640 -12 19 -29 49 -38 65 -54 98
-222 328 -313 430 -73 80 -218 219 -296 282 -278 225 -646 400 -960 457 -16 3
-41 8 -55 11 -134 29 -449 25 -590 -7 -25 -5 -56 -12 -70 -14 -66 -11 -236
-73 -330 -120 -342 -171 -573 -462 -675 -846 -13 -51 -27 -115 -31 -143 -3
-27 -8 -52 -9 -55 -16 -27 -20 -489 -18 -2437 l3 -2253 -24 0 c-13 0 -48 5
-77 11 -30 6 -67 13 -84 16 -16 3 -84 20 -150 39 -302 87 -598 239 -835 428
-78 63 -273 252 -328 319 -56 69 -146 195 -198 280 -60 96 -194 366 -194 389
0 8 -4 18 -9 23 -16 18 -114 332 -135 435 -27 133 -56 299 -61 360 -3 41 -9
89 -11 105 -8 45 -8 389 0 475 10 105 25 226 36 285 5 28 12 66 15 85 12 76
70 291 106 396 294 856 885 1418 1682 1598 l27 6 -2 397 -3 396 -28 1 c-15 1
-29 1 -30 0z m1823 -918 c225 -18 519 -175 755 -403 277 -267 479 -608 605
-1023 52 -169 95 -365 115 -517 13 -103 15 -121 20 -182 3 -35 8 -89 11 -120
7 -77 7 -452 0 -526 -4 -33 -9 -87 -11 -120 -30 -345 -153 -746 -323 -1046
-105 -187 -304 -429 -462 -564 -30 -26 -66 -57 -80 -69 -51 -45 -228 -165
-330 -223 -184 -106 -353 -179 -585 -255 -84 -27 -321 -86 -377 -93 l-47 -7
-3 309 c-5 550 0 4077 5 4108 3 17 8 53 11 81 9 81 51 233 84 306 94 207 244
321 457 346 39 4 75 7 80 6 6 -1 39 -5 75 -8z"/>
</g>
</svg>
