<?xml version="1.0" encoding="UTF-8"?>
<svg width="20px" height="20px" viewBox="0 0 20 20" version="1.1" xmlns="http://www.w3.org/2000/svg" xmlns:xlink="http://www.w3.org/1999/xlink">
    <g id="Page-1" stroke="none" stroke-width="1" fill="none" fill-rule="evenodd">
        <g id="elements" transform="translate(-360.000000, -1783.000000)">
            <g id="help-with-circle" transform="translate(360.000000, 1783.000000)">
                <path d="M10,0.4 C4.698,0.4 0.4,4.698 0.4,10 C0.4,15.302 4.698,19.6 10,19.6 C15.301,19.6 19.6,15.302 19.6,9.999 C19.6,4.698 15.301,0.4 10,0.4 L10,0.4 Z" id="Shape" fill="#FBC304"></path>
                <path d="M14.0093112,8.96124216 C13.7747667,9.32669131 13.2597887,9.78490832 12.6096926,10.3429211 L11.8933123,10.886878 C11.5007052,11.2242157 11.2636114,11.5432809 11.1756572,11.8539127 C11.1042741,12.0984825 11.071132,12.1645445 11.0647585,12.6635231 L11.0647585,12.7900248 L8.330531,12.7900248 L8.33817919,12.5342104 C8.37259604,11.4884636 8.3955406,10.8700112 8.78942232,10.3597879 C9.40765092,9.56142211 10.7715779,8.5915763 10.8289393,8.55081466 C11.0252428,8.38917369 11.1896789,8.20504355 11.3120499,8.00685766 C11.598857,7.56972426 11.7250521,7.22676429 11.7250521,6.89223777 C11.7250521,6.42277617 11.6001317,5.98845392 11.3515656,5.60473231 C11.1119223,5.23084972 10.6568551,5.045314 9.99911085,5.045314 C9.34646541,5.045314 8.89904636,5.27301693 8.63263445,5.74247853 C8.35729966,6.22177914 8.21835756,6.72638008 8.21835756,7.2422256 L8.21835756,7.37153838 L5.4,7.37153838 L5.40509879,7.23660331 C5.47775659,5.33486217 6.09471048,3.96442787 7.23429061,3.16465647 C7.95194565,2.65724439 8.84550904,2.40002441 9.88693741,2.40002441 C11.248315,2.40002441 12.4006421,2.76547356 13.3056778,3.48512726 C14.2247351,4.21461998 14.69,5.30815627 14.69,6.73340794 C14.6887253,7.5303682 14.4605543,8.27953895 14.0093112,8.96124216 L14.0093112,8.96124216 Z" id="Path" fill="#000000"></path>
                <path d="M9.849,17.6000439 L9.798,17.6000439 C9.016,17.5770439 8.464,17.0000439 8.487,16.2290439 C8.509,15.4710439 9.074,14.9200439 9.83,14.9200439 L9.876,14.9220439 C10.68,14.9450439 11.226,15.5160439 11.203,16.3090439 C11.18,17.0690439 10.625,17.6000439 9.849,17.6000439 L9.849,17.6000439 Z" id="Path" fill="#000000"></path>
            </g>
        </g>
    </g>
</svg>